1, 65280, Note_on_c, 0, 57, 60
1, 65280, Note_on_c, 0, 53, 60
1, 65280, Note_on_c, 0, 48, 60
1, 71040, Note_off_c, 0, 57, 60
1, 71040, Note_off_c, 0, 53, 60
1, 71040, Note_off_c, 0, 48, 60
1, 72960, Note_on_c, 0, 57, 60
1, 72960, Note_on_c, 0, 53, 60
1, 72960, Note_on_c, 0, 48, 60
1, 78720, Note_off_c, 0, 57, 60
1, 78720, Note_off_c, 0, 53, 60
1, 78720, Note_off_c, 0, 48, 60
1, 80640, Note_on_c, 0, 60, 60
1, 80640, Note_on_c, 0, 53, 60
1, 80640, Note_on_c, 0, 48, 60
1, 86400, Note_off_c, 0, 60, 60
1, 86400, Note_off_c, 0, 53, 60
1, 86400, Note_off_c, 0, 48, 60
1, 88320, Note_on_c, 0, 60, 60
1, 88320, Note_on_c, 0, 53, 60
1, 88320, Note_on_c, 0, 48, 60
1, 94080, Note_off_c, 0, 60, 60
1, 94080, Note_off_c, 0, 53, 60
1, 94080, Note_off_c, 0, 48, 60
1, 192000, Note_on_c, 0, 57, 60
1, 192000, Note_on_c, 0, 53, 60
1, 192000, Note_on_c, 0, 48, 60
1, 197760, Note_on_c, 0, 58, 54
1, 197760, Note_off_c, 0, 57, 60
1, 197760, Note_on_c, 0, 54, 54
1, 197760, Note_off_c, 0, 53, 60
1, 197760, Note_off_c, 0, 48, 60
1, 197760, Note_on_c, 0, 48, 54
1, 199680, Note_off_c, 0, 58, 54
1, 199680, Note_on_c, 0, 57, 60
1, 199680, Note_off_c, 0, 54, 54
1, 199680, Note_on_c, 0, 53, 60
1, 199680, Note_off_c, 0, 48, 54
1, 199680, Note_on_c, 0, 48, 60
1, 205440, Note_off_c, 0, 57, 60
1, 205440, Note_on_c, 0, 54, 54
1, 205440, Note_off_c, 0, 53, 60
1, 205440, Note_on_c, 0, 49, 54
1, 205440, Note_off_c, 0, 48, 60
1, 205440, Note_on_c, 0, 46, 54
1, 207360, Note_on_c, 0, 60, 60
1, 207360, Note_off_c, 0, 54, 54
1, 207360, Note_on_c, 0, 53, 60
1, 207360, Note_off_c, 0, 49, 54
1, 207360, Note_on_c, 0, 48, 60
1, 207360, Note_off_c, 0, 46, 54
1, 213120, Note_on_c, 0, 63, 54
1, 213120, Note_off_c, 0, 60, 60
1, 213120, Note_on_c, 0, 54, 54
1, 213120, Note_off_c, 0, 53, 60
1, 213120, Note_off_c, 0, 48, 60
1, 213120, Note_on_c, 0, 44, 54
1, 215040, Note_off_c, 0, 63, 54
1, 215040, Note_on_c, 0, 60, 60
1, 215040, Note_off_c, 0, 54, 54
1, 215040, Note_on_c, 0, 53, 60
1, 215040, Note_on_c, 0, 48, 60
1, 215040, Note_off_c, 0, 44, 54
1, 220800, Note_on_c, 0, 63, 54
1, 220800, Note_off_c, 0, 60, 60
1, 220800, Note_on_c, 0, 54, 54
1, 220800, Note_off_c, 0, 53, 60
1, 220800, Note_off_c, 0, 48, 60
1, 220800, Note_on_c, 0, 44, 54
1, 222720, Note_off_c, 0, 63, 54
1, 222720, Note_off_c, 0, 54, 54
1, 222720, Note_off_c, 0, 44, 54
1, 222720, Note_on_c, 0, 57, 60
1, 222720, Note_on_c, 0, 53, 60
1, 222720, Note_on_c, 0, 48, 60
1, 228480, Note_on_c, 0, 58, 54
1, 228480, Note_off_c, 0, 57, 60
1, 228480, Note_on_c, 0, 54, 54
1, 228480, Note_off_c, 0, 53, 60
1, 228480, Note_off_c, 0, 48, 60
1, 228480, Note_on_c, 0, 48, 54
1, 230400, Note_off_c, 0, 58, 54
1, 230400, Note_on_c, 0, 57, 60
1, 230400, Note_off_c, 0, 54, 54
1, 230400, Note_on_c, 0, 53, 60
1, 230400, Note_off_c, 0, 48, 54
1, 230400, Note_on_c, 0, 48, 60
1, 236160, Note_off_c, 0, 57, 60
1, 236160, Note_on_c, 0, 54, 54
1, 236160, Note_off_c, 0, 53, 60
1, 236160, Note_on_c, 0, 49, 54
1, 236160, Note_off_c, 0, 48, 60
1, 236160, Note_on_c, 0, 46, 54
1, 238080, Note_on_c, 0, 60, 60
1, 238080, Note_off_c, 0, 54, 54
1, 238080, Note_on_c, 0, 53, 60
1, 238080, Note_off_c, 0, 49, 54
1, 238080, Note_on_c, 0, 48, 60
1, 238080, Note_off_c, 0, 46, 54
1, 243840, Note_on_c, 0, 63, 54
1, 243840, Note_off_c, 0, 60, 60
1, 243840, Note_on_c, 0, 54, 54
1, 243840, Note_off_c, 0, 53, 60
1, 243840, Note_off_c, 0, 48, 60
1, 243840, Note_on_c, 0, 44, 54
1, 245760, Note_off_c, 0, 63, 54
1, 245760, Note_on_c, 0, 60, 60
1, 245760, Note_off_c, 0, 54, 54
1, 245760, Note_on_c, 0, 53, 60
1, 245760, Note_on_c, 0, 48, 60
1, 245760, Note_off_c, 0, 44, 54
1, 251520, Note_on_c, 0, 63, 54
1, 251520, Note_off_c, 0, 60, 60
1, 251520, Note_on_c, 0, 54, 54
1, 251520, Note_off_c, 0, 53, 60
1, 251520, Note_off_c, 0, 48, 60
1, 251520, Note_on_c, 0, 44, 54
1, 253440, Note_off_c, 0, 63, 54
1, 253440, Note_off_c, 0, 54, 54
1, 253440, Note_off_c, 0, 44, 54
1, 253441, End_track
2, 0, Start_track
2, 0, Title_t, "FM Balafon"
2, 96000, Note_on_c, 0, 57, 60
2, 96000, Note_on_c, 0, 53, 60
2, 96000, Note_on_c, 0, 48, 60
2, 101760, Note_on_c, 0, 58, 54
2, 101760, Note_off_c, 0, 57, 60
2, 101760, Note_on_c, 0, 54, 54
2, 101760, Note_off_c, 0, 53, 60
2, 101760, Note_off_c, 0, 48, 60
2, 101760, Note_on_c, 0, 48, 54
2, 103680, Note_off_c, 0, 58, 54
2, 103680, Note_on_c, 0, 57, 60
2, 103680, Note_off_c, 0, 54, 54
2, 103680, Note_on_c, 0, 53, 60
2, 103680, Note_off_c, 0, 48, 54
2, 103680, Note_on_c, 0, 48, 60
2, 109440, Note_off_c, 0, 57, 60
2, 109440, Note_on_c, 0, 54, 54
2, 109440, Note_off_c, 0, 53, 60
2, 109440, Note_on_c, 0, 49, 54
2, 109440, Note_off_c, 0, 48, 60
2, 109440, Note_on_c, 0, 46, 54
2, 111360, Note_on_c, 0, 60, 60
2, 111360, Note_off_c, 0, 54, 54
2, 111360, Note_on_c, 0, 53, 60
2, 111360, Note_off_c, 0, 49, 54
2, 111360, Note_on_c, 0, 48, 60
2, 111360, Note_off_c, 0, 46, 54
2, 117120, Note_on_c, 0, 63, 54
2, 117120, Note_off_c, 0, 60, 60
2, 117120, Note_on_c, 0, 54, 54
2, 117120, Note_off_c, 0, 53, 60
2, 117120, Note_off_c, 0, 48, 60
2, 117120, Note_on_c, 0, 44, 54
2, 119040, Note_off_c, 0, 63, 54
2, 119040, Note_on_c, 0, 60, 60
2, 119040, Note_off_c, 0, 54, 54
2, 119040, Note_on_c, 0, 53, 60
2, 119040, Note_on_c, 0, 48, 60
2, 119040, Note_off_c, 0, 44, 54
2, 124800, Note_on_c, 0, 63, 54
2, 124800, Note_off_c, 0, 60, 60
2, 124800, Note_on_c, 0, 54, 54
2, 124800, Note_off_c, 0, 53, 60
2, 124800, Note_off_c, 0, 48, 60
2, 124800, Note_on_c, 0, 44, 54
2, 126720, Note_off_c, 0, 63, 54
2, 126720, Note_off_c, 0, 54, 54
2, 126720, Note_off_c, 0, 44, 54
2, 192000, Note_on_c, 0, 57, 60
2, 192000, Note_on_c, 0, 53, 60
2, 192000, Note_on_c, 0, 48, 60
2, 197760, Note_on_c, 0, 58, 54
2, 197760, Note_off_c, 0, 57, 60
2, 197760, Note_on_c, 0, 54, 54
2, 197760, Note_off_c, 0, 53, 60
2, 197760, Note_off_c, 0, 48, 60
2, 197760, Note_on_c, 0, 48, 54
2, 199680, Note_off_c, 0, 58, 54
2, 199680, Note_on_c, 0, 57, 60
2, 199680, Note_off_c, 0, 54, 54
2, 199680, Note_on_c, 0, 53, 60
2, 199680, Note_off_c, 0, 48, 54
2, 199680, Note_on_c, 0, 48, 60
2, 205440, Note_off_c, 0, 57, 60
2, 205440, Note_on_c, 0, 54, 54
2, 205440, Note_off_c, 0, 53, 60
2, 205440, Note_on_c, 0, 49, 54
2, 205440, Note_off_c, 0, 48, 60
2, 205440, Note_on_c, 0, 46, 54
2, 207360, Note_on_c, 0, 60, 60
2, 207360, Note_off_c, 0, 54, 54
2, 207360, Note_on_c, 0, 53, 60
2, 207360, Note_off_c, 0, 49, 54
2, 207360, Note_on_c, 0, 48, 60
2, 207360, Note_off_c, 0, 46, 54
2, 213120, Note_on_c, 0, 63, 54
2, 213120, Note_off_c, 0, 60, 60
2, 213120, Note_on_c, 0, 54, 54
2, 213120, Note_off_c, 0, 53, 60
2, 213120, Note_off_c, 0, 48, 60
2, 213120, Note_on_c, 0, 44, 54
2, 215040, Note_off_c, 0, 63, 54
2, 215040, Note_on_c, 0, 60, 60
2, 215040, Note_off_c, 0, 54, 54
2, 215040, Note_on_c, 0, 53, 60
2, 215040, Note_on_c, 0, 48, 60
2, 215040, Note_off_c, 0, 44, 54
2, 220800, Note_on_c, 0, 63, 54
2, 220800, Note_off_c, 0, 60, 60
2, 220800, Note_on_c, 0, 54, 54
2, 220800, Note_off_c, 0, 53, 60
2, 220800, Note_off_c, 0, 48, 60
2, 220800, Note_on_c, 0, 44, 54
2, 222720, Note_off_c, 0, 63, 54
2, 222720, Note_off_c, 0, 54, 54
2, 222720, Note_off_c, 0, 44, 54
2, 222720, Note_on_c, 0, 57, 60
2, 222720, Note_on_c, 0, 53, 60
2, 222720, Note_on_c, 0, 48, 60
2, 228480, Note_on_c, 0, 58, 54
2, 228480, Note_off_c, 0, 57, 60
2, 228480, Note_on_c, 0, 54, 54
2, 228480, Note_off_c, 0, 53, 60
2, 228480, Note_off_c, 0, 48, 60
2, 228480, Note_on_c, 0, 48, 54
2, 230400, Note_off_c, 0, 58, 54
2, 230400, Note_on_c, 0, 57, 60
2, 230400, Note_off_c, 0, 54, 54
2, 230400, Note_on_c, 0, 53, 60
2, 230400, Note_off_c, 0, 48, 54
2, 230400, Note_on_c, 0, 48, 60
2, 236160, Note_off_c, 0, 57, 60
2, 236160, Note_on_c, 0, 54, 54
2, 236160, Note_off_c, 0, 53, 60
2, 236160, Note_on_c, 0, 49, 54
2, 236160, Note_off_c, 0, 48, 60
2, 236160, Note_on_c, 0, 46, 54
2, 238080, Note_on_c, 0, 60, 60
2, 238080, Note_off_c, 0, 54, 54
2, 238080, Note_on_c, 0, 53, 60
2, 238080, Note_off_c, 0, 49, 54
2, 238080, Note_on_c, 0, 48, 60
2, 238080, Note_off_c, 0, 46, 54
2, 243840, Note_on_c, 0, 63, 54
2, 243840, Note_off_c, 0, 60, 60
2, 243840, Note_on_c, 0, 54, 54
2, 243840, Note_off_c, 0, 53, 60
2, 243840, Note_off_c, 0, 48, 60
2, 243840, Note_on_c, 0, 44, 54
2, 245760, Note_off_c, 0, 63, 54
2, 245760, Note_on_c, 0, 60, 60
2, 245760, Note_off_c, 0, 54, 54
2, 245760, Note_on_c, 0, 53, 60
2, 245760, Note_on_c, 0, 48, 60
2, 245760, Note_off_c, 0, 44, 54
2, 251520, Note_on_c, 0, 63, 54
2, 251520, Note_off_c, 0, 60, 60
2, 251520, Note_on_c, 0, 54, 54
2, 251520, Note_off_c, 0, 53, 60
2, 251520, Note_off_c, 0, 48, 60
2, 251520, Note_on_c, 0, 44, 54
2, 253440, Note_off_c, 0, 63, 54
2, 253440, Note_off_c, 0, 54, 54
2, 253440, Note_off_c, 0, 44, 54
2, 253441, End_track
3, 0, Start_track
3, 0, Title_t, "Deep Pocket"
3, 65280, Note_on_c, 0, 48, 60
3, 65520, Note_on_c, 0, 53, 60
3, 65520, Note_off_c, 0, 48, 60
3, 65760, Note_off_c, 0, 53, 60
3, 65760, Note_on_c, 0, 48, 60
3, 66000, Note_on_c, 0, 53, 60
3, 66000, Note_off_c, 0, 48, 60
3, 66240, Note_off_c, 0, 53, 60
3, 66240, Note_on_c, 0, 48, 60
3, 66480, Note_on_c, 0, 53, 60
3, 66480, Note_off_c, 0, 48, 60
3, 66720, Note_off_c, 0, 53, 60
3, 66720, Note_on_c, 0, 48, 60
3, 66960, Note_on_c, 0, 53, 60
3, 66960, Note_off_c, 0, 48, 60
3, 67200, Note_off_c, 0, 53, 60
3, 67200, Note_on_c, 0, 48, 60
3, 67440, Note_on_c, 0, 53, 60
3, 67440, Note_off_c, 0, 48, 60
3, 67680, Note_off_c, 0, 53, 60
3, 67680, Note_on_c, 0, 48, 60
3, 67920, Note_on_c, 0, 53, 60
3, 67920, Note_off_c, 0, 48, 60
3, 68160, Note_off_c, 0, 53, 60
3, 68160, Note_on_c, 0, 48, 60
3, 68400, Note_on_c, 0, 53, 60
3, 68400, Note_off_c, 0, 48, 60
3, 68640, Note_off_c, 0, 53, 60
3, 68640, Note_on_c, 0, 48, 60
3, 68880, Note_on_c, 0, 53, 60
3, 68880, Note_off_c, 0, 48, 60
3, 69120, Note_off_c, 0, 53, 60
3, 69120, Note_on_c, 0, 48, 60
3, 69360, Note_on_c, 0, 53, 60
3, 69360, Note_off_c, 0, 48, 60
3, 69600, Note_off_c, 0, 53, 60
3, 69600, Note_on_c, 0, 48, 60
3, 69840, Note_on_c, 0, 53, 60
3, 69840, Note_off_c, 0, 48, 60
3, 70080, Note_off_c, 0, 53, 60
3, 70080, Note_on_c, 0, 48, 60
3, 70320, Note_on_c, 0, 53, 60
3, 70320, Note_off_c, 0, 48, 60
3, 70560, Note_off_c, 0, 53, 60
3, 70560, Note_on_c, 0, 48, 60
3, 70800, Note_on_c, 0, 53, 60
3, 70800, Note_off_c, 0, 48, 60
3, 71040, Note_off_c, 0, 53, 60
3, 71040, Note_on_c, 0, 48, 54
3, 71280, Note_on_c, 0, 58, 54
3, 71280, Note_off_c, 0, 48, 54
3, 71520, Note_off_c, 0, 58, 54
3, 71520, Note_on_c, 0, 54, 54
3, 71760, Note_off_c, 0, 54, 54
3, 71760, Note_on_c, 0, 48, 54
3, 72000, Note_on_c, 0, 58, 54
3, 72000, Note_off_c, 0, 48, 54
3, 72240, Note_off_c, 0, 58, 54
3, 72240, Note_on_c, 0, 54, 54
3, 72480, Note_off_c, 0, 54, 54
3, 72480, Note_on_c, 0, 48, 54
3, 72720, Note_on_c, 0, 58, 54
3, 72720, Note_off_c, 0, 48, 54
3, 72960, Note_off_c, 0, 58, 54
3, 72960, Note_on_c, 0, 48, 60
3, 73200, Note_on_c, 0, 53, 60
3, 73200, Note_off_c, 0, 48, 60
3, 73440, Note_off_c, 0, 53, 60
3, 73440, Note_on_c, 0, 48, 60
3, 73680, Note_on_c, 0, 53, 60
3, 73680, Note_off_c, 0, 48, 60
3, 73920, Note_off_c, 0, 53, 60
3, 73920, Note_on_c, 0, 48, 60
3, 74160, Note_on_c, 0, 53, 60
3, 74160, Note_off_c, 0, 48, 60
3, 74400, Note_off_c, 0, 53, 60
3, 74400, Note_on_c, 0, 48, 60
3, 74640, Note_on_c, 0, 53, 60
3, 74640, Note_off_c, 0, 48, 60
3, 74880, Note_off_c, 0, 53, 60
3, 74880, Note_on_c, 0, 48, 60
3, 75120, Note_on_c, 0, 53, 60
3, 75120, Note_off_c, 0, 48, 60
3, 75360, Note_off_c, 0, 53, 60
3, 75360, Note_on_c, 0, 48, 60
3, 75600, Note_on_c, 0, 53, 60
3, 75600, Note_off_c, 0, 48, 60
3, 75840, Note_off_c, 0, 53, 60
3, 75840, Note_on_c, 0, 48, 60
3, 76080, Note_on_c, 0, 53, 60
3, 76080, Note_off_c, 0, 48, 60
3, 76320, Note_off_c, 0, 53, 60
3, 76320, Note_on_c, 0, 48, 60
3, 76560, Note_on_c, 0, 53, 60
3, 76560, Note_off_c, 0, 48, 60
3, 76800, Note_off_c, 0, 53, 60
3, 76800, Note_on_c, 0, 48, 60
3, 77040, Note_on_c, 0, 53, 60
3, 77040, Note_off_c, 0, 48, 60
3, 77280, Note_off_c, 0, 53, 60
3, 77280, Note_on_c, 0, 48, 60
3, 77520, Note_on_c, 0, 53, 60
3, 77520, Note_off_c, 0, 48, 60
3, 77760, Note_off_c, 0, 53, 60
3, 77760, Note_on_c, 0, 48, 60
3, 78000, Note_on_c, 0, 53, 60
3, 78000, Note_off_c, 0, 48, 60
3, 78240, Note_off_c, 0, 53, 60
3, 78240, Note_on_c, 0, 48, 60
3, 78480, Note_on_c, 0, 53, 60
3, 78480, Note_off_c, 0, 48, 60
3, 78720, Note_off_c, 0, 53, 60
3, 78720, Note_on_c, 0, 46, 54
3, 78960, Note_on_c, 0, 49, 54
3, 78960, Note_off_c, 0, 46, 54
3, 79200, Note_on_c, 0, 54, 54
3, 79200, Note_off_c, 0, 49, 54
3, 79440, Note_off_c, 0, 54, 54
3, 79440, Note_on_c, 0, 46, 54
3, 79680, Note_on_c, 0, 49, 54
3, 79680, Note_off_c, 0, 46, 54
3, 79920, Note_on_c, 0, 54, 54
3, 79920, Note_off_c, 0, 49, 54
3, 80160, Note_off_c, 0, 54, 54
3, 80160, Note_on_c, 0, 46, 54
3, 80400, Note_on_c, 0, 49, 54
3, 80400, Note_off_c, 0, 46, 54
3, 80640, Note_off_c, 0, 49, 54
3, 80640, Note_on_c, 0, 43, 60
3, 80880, Note_on_c, 0, 60, 60
3, 80880, Note_off_c, 0, 43, 60
3, 81120, Note_on_c, 0, 65, 60
3, 81120, Note_off_c, 0, 60, 60
3, 81360, Note_off_c, 0, 65, 60
3, 81360, Note_on_c, 0, 43, 60
3, 81600, Note_on_c, 0, 60, 60
3, 81600, Note_off_c, 0, 43, 60
3, 81840, Note_on_c, 0, 65, 60
3, 81840, Note_off_c, 0, 60, 60
3, 82080, Note_off_c, 0, 65, 60
3, 82080, Note_on_c, 0, 43, 60
3, 82320, Note_on_c, 0, 60, 60
3, 82320, Note_off_c, 0, 43, 60
3, 82560, Note_on_c, 0, 65, 60
3, 82560, Note_off_c, 0, 60, 60
3, 82800, Note_off_c, 0, 65, 60
3, 82800, Note_on_c, 0, 43, 60
3, 83040, Note_on_c, 0, 60, 60
3, 83040, Note_off_c, 0, 43, 60
3, 83280, Note_on_c, 0, 65, 60
3, 83280, Note_off_c, 0, 60, 60
3, 83520, Note_off_c, 0, 65, 60
3, 83520, Note_on_c, 0, 43, 60
3, 83760, Note_on_c, 0, 60, 60
3, 83760, Note_off_c, 0, 43, 60
3, 84000, Note_on_c, 0, 65, 60
3, 84000, Note_off_c, 0, 60, 60
3, 84240, Note_off_c, 0, 65, 60
3, 84240, Note_on_c, 0, 43, 60
3, 84480, Note_on_c, 0, 60, 60
3, 84480, Note_off_c, 0, 43, 60
3, 84720, Note_on_c, 0, 65, 60
3, 84720, Note_off_c, 0, 60, 60
3, 84960, Note_off_c, 0, 65, 60
3, 84960, Note_on_c, 0, 43, 60
3, 85200, Note_on_c, 0, 60, 60
3, 85200, Note_off_c, 0, 43, 60
3, 85440, Note_on_c, 0, 65, 60
3, 85440, Note_off_c, 0, 60, 60
3, 85680, Note_off_c, 0, 65, 60
3, 85680, Note_on_c, 0, 43, 60
3, 85920, Note_on_c, 0, 60, 60
3, 85920, Note_off_c, 0, 43, 60
3, 86160, Note_on_c, 0, 65, 60
3, 86160, Note_off_c, 0, 60, 60
3, 86400, Note_off_c, 0, 65, 60
3, 86400, Note_on_c, 0, 54, 54
3, 86640, Note_on_c, 0, 56, 54
3, 86640, Note_off_c, 0, 54, 54
3, 86880, Note_on_c, 0, 61, 54
3, 86880, Note_off_c, 0, 56, 54
3, 87120, Note_off_c, 0, 61, 54
3, 87120, Note_on_c, 0, 54, 54
3, 87360, Note_on_c, 0, 56, 54
3, 87360, Note_off_c, 0, 54, 54
3, 87600, Note_on_c, 0, 61, 54
3, 87600, Note_off_c, 0, 56, 54
3, 87840, Note_off_c, 0, 61, 54
3, 87840, Note_on_c, 0, 54, 54
3, 88080, Note_on_c, 0, 56, 54
3, 88080, Note_off_c, 0, 54, 54
3, 88320, Note_on_c, 0, 60, 60
3, 88320, Note_off_c, 0, 56, 54
3, 88560, Note_off_c, 0, 60, 60
3, 88560, Note_on_c, 0, 53, 60
3, 88800, Note_on_c, 0, 60, 60
3, 88800, Note_off_c, 0, 53, 60
3, 89040, Note_off_c, 0, 60, 60
3, 89040, Note_on_c, 0, 53, 60
3, 89280, Note_on_c, 0, 60, 60
3, 89280, Note_off_c, 0, 53, 60
3, 89520, Note_off_c, 0, 60, 60
3, 89520, Note_on_c, 0, 53, 60
3, 89760, Note_on_c, 0, 60, 60
3, 89760, Note_off_c, 0, 53, 60
3, 90000, Note_off_c, 0, 60, 60
3, 90000, Note_on_c, 0, 53, 60
3, 90240, Note_on_c, 0, 60, 60
3, 90240, Note_off_c, 0, 53, 60
3, 90480, Note_off_c, 0, 60, 60
3, 90480, Note_on_c, 0, 53, 60
3, 90720, Note_on_c, 0, 60, 60
3, 90720, Note_off_c, 0, 53, 60
3, 90960, Note_off_c, 0, 60, 60
3, 90960, Note_on_c, 0, 53, 60
3, 91200, Note_on_c, 0, 60, 60
3, 91200, Note_off_c, 0, 53, 60
3, 91440, Note_off_c, 0, 60, 60
3, 91440, Note_on_c, 0, 53, 60
3, 91680, Note_on_c, 0, 60, 60
3, 91680, Note_off_c, 0, 53, 60
3, 91920, Note_off_c, 0, 60, 60
3, 91920, Note_on_c, 0, 53, 60
3, 92160, Note_on_c, 0, 60, 60
3, 92160, Note_off_c, 0, 53, 60
3, 92400, Note_off_c, 0, 60, 60
3, 92400, Note_on_c, 0, 53, 60
3, 92640, Note_on_c, 0, 60, 60
3, 92640, Note_off_c, 0, 53, 60
3, 92880, Note_off_c, 0, 60, 60
3, 92880, Note_on_c, 0, 53, 60
3, 93120, Note_on_c, 0, 60, 60
3, 93120, Note_off_c, 0, 53, 60
3, 93360, Note_off_c, 0, 60, 60
3, 93360, Note_on_c, 0, 53, 60
3, 93600, Note_on_c, 0, 60, 60
3, 93600, Note_off_c, 0, 53, 60
3, 93840, Note_off_c, 0, 60, 60
3, 93840, Note_on_c, 0, 53, 60
3, 94080, Note_off_c, 0, 53, 60
3, 94080, Note_on_c, 0, 44, 54
3, 94320, Note_on_c, 0, 54, 54
3, 94320, Note_off_c, 0, 44, 54
3, 94560, Note_on_c, 0, 63, 54
3, 94560, Note_off_c, 0, 54, 54
3, 94800, Note_off_c, 0, 63, 54
3, 94800, Note_on_c, 0, 54, 54
3, 95040, Note_off_c, 0, 54, 54
3, 95040, Note_on_c, 0, 44, 54
3, 95280, Note_on_c, 0, 54, 54
3, 95280, Note_off_c, 0, 44, 54
3, 95520, Note_on_c, 0, 63, 54
3, 95520, Note_off_c, 0, 54, 54
3, 95760, Note_off_c, 0, 63, 54
3, 95760, Note_on_c, 0, 54, 54
3, 96000, Note_off_c, 0, 54, 54
3, 96000, Note_on_c, 0, 48, 60
3, 96240, Note_on_c, 0, 53, 60
3, 96240, Note_off_c, 0, 48, 60
3, 96480, Note_off_c, 0, 53, 60
3, 96480, Note_on_c, 0, 48, 60
3, 96720, Note_on_c, 0, 53, 60
3, 96720, Note_off_c, 0, 48, 60
3, 96960, Note_off_c, 0, 53, 60
3, 96960, Note_on_c, 0, 48, 60
3, 97200, Note_on_c, 0, 53, 60
3, 97200, Note_off_c, 0, 48, 60
3, 97440, Note_off_c, 0, 53, 60
3, 97440, Note_on_c, 0, 48, 60
3, 97680, Note_on_c, 0, 53, 60
3, 97680, Note_off_c, 0, 48, 60
3, 97920, Note_off_c, 0, 53, 60
3, 97920, Note_on_c, 0, 48, 60
3, 98160, Note_on_c, 0, 53, 60
3, 98160, Note_off_c, 0, 48, 60
3, 98400, Note_off_c, 0, 53, 60
3, 98400, Note_on_c, 0, 48, 60
3, 98640, Note_on_c, 0, 53, 60
3, 98640, Note_off_c, 0, 48, 60
3, 98880, Note_off_c, 0, 53, 60
3, 98880, Note_on_c, 0, 48, 60
3, 99120, Note_on_c, 0, 53, 60
3, 99120, Note_off_c, 0, 48, 60
3, 99360, Note_off_c, 0, 53, 60
3, 99360, Note_on_c, 0, 48, 60
3, 99600, Note_on_c, 0, 53, 60
3, 99600, Note_off_c, 0, 48, 60
3, 99840, Note_off_c, 0, 53, 60
3, 99840, Note_on_c, 0, 48, 60
3, 100080, Note_on_c, 0, 53, 60
3, 100080, Note_off_c, 0, 48, 60
3, 100320, Note_off_c, 0, 53, 60
3, 100320, Note_on_c, 0, 48, 60
3, 100560, Note_on_c, 0, 53, 60
3, 100560, Note_off_c, 0, 48, 60
3, 100800, Note_off_c, 0, 53, 60
3, 100800, Note_on_c, 0, 48, 60
3, 101040, Note_on_c, 0, 53, 60
3, 101040, Note_off_c, 0, 48, 60
3, 101280, Note_off_c, 0, 53, 60
3, 101280, Note_on_c, 0, 48, 60
3, 101520, Note_on_c, 0, 53, 60
3, 101520, Note_off_c, 0, 48, 60
3, 101760, Note_off_c, 0, 53, 60
3, 101760, Note_on_c, 0, 48, 54
3, 102000, Note_on_c, 0, 58, 54
3, 102000, Note_off_c, 0, 48, 54
3, 102240, Note_off_c, 0, 58, 54
3, 102240, Note_on_c, 0, 54, 54
3, 102480, Note_off_c, 0, 54, 54
3, 102480, Note_on_c, 0, 48, 54
3, 102720, Note_on_c, 0, 58, 54
3, 102720, Note_off_c, 0, 48, 54
3, 102960, Note_off_c, 0, 58, 54
3, 102960, Note_on_c, 0, 54, 54
3, 103200, Note_off_c, 0, 54, 54
3, 103200, Note_on_c, 0, 48, 54
3, 103440, Note_on_c, 0, 58, 54
3, 103440, Note_off_c, 0, 48, 54
3, 103680, Note_off_c, 0, 58, 54
3, 103680, Note_on_c, 0, 48, 60
3, 103920, Note_on_c, 0, 53, 60
3, 103920, Note_off_c, 0, 48, 60
3, 104160, Note_off_c, 0, 53, 60
3, 104160, Note_on_c, 0, 48, 60
3, 104400, Note_on_c, 0, 53, 60
3, 104400, Note_off_c, 0, 48, 60
3, 104640, Note_off_c, 0, 53, 60
3, 104640, Note_on_c, 0, 48, 60
3, 104880, Note_on_c, 0, 53, 60
3, 104880, Note_off_c, 0, 48, 60
3, 105120, Note_off_c, 0, 53, 60
3, 105120, Note_on_c, 0, 48, 60
3, 105360, Note_on_c, 0, 53, 60
3, 105360, Note_off_c, 0, 48, 60
3, 105600, Note_off_c, 0, 53, 60
3, 105600, Note_on_c, 0, 48, 60
3, 105840, Note_on_c, 0, 53, 60
3, 105840, Note_off_c, 0, 48, 60
3, 106080, Note_off_c, 0, 53, 60
3, 106080, Note_on_c, 0, 48, 60
3, 106320, Note_on_c, 0, 53, 60
3, 106320, Note_off_c, 0, 48, 60
3, 106560, Note_off_c, 0, 53, 60
3, 106560, Note_on_c, 0, 48, 60
3, 106800, Note_on_c, 0, 53, 60
3, 106800, Note_off_c, 0, 48, 60
3, 107040, Note_off_c, 0, 53, 60
3, 107040, Note_on_c, 0, 48, 60
3, 107280, Note_on_c, 0, 53, 60
3, 107280, Note_off_c, 0, 48, 60
3, 107520, Note_off_c, 0, 53, 60
3, 107520, Note_on_c, 0, 48, 60
3, 107760, Note_on_c, 0, 53, 60
3, 107760, Note_off_c, 0, 48, 60
3, 108000, Note_off_c, 0, 53, 60
3, 108000, Note_on_c, 0, 48, 60
3, 108240, Note_on_c, 0, 53, 60
3, 108240, Note_off_c, 0, 48, 60
3, 108480, Note_off_c, 0, 53, 60
3, 108480, Note_on_c, 0, 48, 60
3, 108720, Note_on_c, 0, 53, 60
3, 108720, Note_off_c, 0, 48, 60
3, 108960, Note_off_c, 0, 53, 60
3, 108960, Note_on_c, 0, 48, 60
3, 109200, Note_on_c, 0, 53, 60
3, 109200, Note_off_c, 0, 48, 60
3, 109440, Note_off_c, 0, 53, 60
3, 109440, Note_on_c, 0, 46, 54
3, 109680, Note_on_c, 0, 49, 54
3, 109680, Note_off_c, 0, 46, 54
3, 109920, Note_on_c, 0, 54, 54
3, 109920, Note_off_c, 0, 49, 54
3, 110160, Note_off_c, 0, 54, 54
3, 110160, Note_on_c, 0, 46, 54
3, 110400, Note_on_c, 0, 49, 54
3, 110400, Note_off_c, 0, 46, 54
3, 110640, Note_on_c, 0, 54, 54
3, 110640, Note_off_c, 0, 49, 54
3, 110880, Note_off_c, 0, 54, 54
3, 110880, Note_on_c, 0, 46, 54
3, 111120, Note_on_c, 0, 49, 54
3, 111120, Note_off_c, 0, 46, 54
3, 111360, Note_off_c, 0, 49, 54
3, 111360, Note_on_c, 0, 43, 60
3, 111600, Note_on_c, 0, 60, 60
3, 111600, Note_off_c, 0, 43, 60
3, 111840, Note_on_c, 0, 65, 60
3, 111840, Note_off_c, 0, 60, 60
3, 112080, Note_off_c, 0, 65, 60
3, 112080, Note_on_c, 0, 43, 60
3, 112320, Note_on_c, 0, 60, 60
3, 112320, Note_off_c, 0, 43, 60
3, 112560, Note_on_c, 0, 65, 60
3, 112560, Note_off_c, 0, 60, 60
3, 112800, Note_off_c, 0, 65, 60
3, 112800, Note_on_c, 0, 43, 60
3, 113040, Note_on_c, 0, 60, 60
3, 113040, Note_off_c, 0, 43, 60
3, 113280, Note_on_c, 0, 65, 60
3, 113280, Note_off_c, 0, 60, 60
3, 113520, Note_off_c, 0, 65, 60
3, 113520, Note_on_c, 0, 43, 60
3, 113760, Note_on_c, 0, 60, 60
3, 113760, Note_off_c, 0, 43, 60
3, 114000, Note_on_c, 0, 65, 60
3, 114000, Note_off_c, 0, 60, 60
3, 114240, Note_off_c, 0, 65, 60
3, 114240, Note_on_c, 0, 43, 60
3, 114480, Note_on_c, 0, 60, 60
3, 114480, Note_off_c, 0, 43, 60
3, 114720, Note_on_c, 0, 65, 60
3, 114720, Note_off_c, 0, 60, 60
3, 114960, Note_off_c, 0, 65, 60
3, 114960, Note_on_c, 0, 43, 60
3, 115200, Note_on_c, 0, 60, 60
3, 115200, Note_off_c, 0, 43, 60
3, 115440, Note_on_c, 0, 65, 60
3, 115440, Note_off_c, 0, 60, 60
3, 115680, Note_off_c, 0, 65, 60
3, 115680, Note_on_c, 0, 43, 60
3, 115920, Note_on_c, 0, 60, 60
3, 115920, Note_off_c, 0, 43, 60
3, 116160, Note_on_c, 0, 65, 60
3, 116160, Note_off_c, 0, 60, 60
3, 116400, Note_off_c, 0, 65, 60
3, 116400, Note_on_c, 0, 43, 60
3, 116640, Note_on_c, 0, 60, 60
3, 116640, Note_off_c, 0, 43, 60
3, 116880, Note_on_c, 0, 65, 60
3, 116880, Note_off_c, 0, 60, 60
3, 117120, Note_off_c, 0, 65, 60
3, 117120, Note_on_c, 0, 54, 54
3, 117360, Note_on_c, 0, 56, 54
3, 117360, Note_off_c, 0, 54, 54
3, 117600, Note_on_c, 0, 61, 54
3, 117600, Note_off_c, 0, 56, 54
3, 117840, Note_off_c, 0, 61, 54
3, 117840, Note_on_c, 0, 54, 54
3, 118080, Note_on_c, 0, 56, 54
3, 118080, Note_off_c, 0, 54, 54
3, 118320, Note_on_c, 0, 61, 54
3, 118320, Note_off_c, 0, 56, 54
3, 118560, Note_off_c, 0, 61, 54
3, 118560, Note_on_c, 0, 54, 54
3, 118800, Note_on_c, 0, 56, 54
3, 118800, Note_off_c, 0, 54, 54
3, 119040, Note_on_c, 0, 60, 60
3, 119040, Note_off_c, 0, 56, 54
3, 119280, Note_off_c, 0, 60, 60
3, 119280, Note_on_c, 0, 53, 60
3, 119520, Note_on_c, 0, 60, 60
3, 119520, Note_off_c, 0, 53, 60
3, 119760, Note_off_c, 0, 60, 60
3, 119760, Note_on_c, 0, 53, 60
3, 120000, Note_on_c, 0, 60, 60
3, 120000, Note_off_c, 0, 53, 60
3, 120240, Note_off_c, 0, 60, 60
3, 120240, Note_on_c, 0, 53, 60
3, 120480, Note_on_c, 0, 60, 60
3, 120480, Note_off_c, 0, 53, 60
3, 120720, Note_off_c, 0, 60, 60
3, 120720, Note_on_c, 0, 53, 60
3, 120960, Note_on_c, 0, 60, 60
3, 120960, Note_off_c, 0, 53, 60
3, 121200, Note_off_c, 0, 60, 60
3, 121200, Note_on_c, 0, 53, 60
3, 121440, Note_on_c, 0, 60, 60
3, 121440, Note_off_c, 0, 53, 60
3, 121680, Note_off_c, 0, 60, 60
3, 121680, Note_on_c, 0, 53, 60
3, 121920, Note_on_c, 0, 60, 60
3, 121920, Note_off_c, 0, 53, 60
3, 122160, Note_off_c, 0, 60, 60
3, 122160, Note_on_c, 0, 53, 60
3, 122400, Note_on_c, 0, 60, 60
3, 122400, Note_off_c, 0, 53, 60
3, 122640, Note_off_c, 0, 60, 60
3, 122640, Note_on_c, 0, 53, 60
3, 122880, Note_on_c, 0, 60, 60
3, 122880, Note_off_c, 0, 53, 60
3, 123120, Note_off_c, 0, 60, 60
3, 123120, Note_on_c, 0, 53, 60
3, 123360, Note_on_c, 0, 60, 60
3, 123360, Note_off_c, 0, 53, 60
3, 123600, Note_off_c, 0, 60, 60
3, 123600, Note_on_c, 0, 53, 60
3, 123840, Note_on_c, 0, 60, 60
3, 123840, Note_off_c, 0, 53, 60
3, 124080, Note_off_c, 0, 60, 60
3, 124080, Note_on_c, 0, 53, 60
3, 124320, Note_on_c, 0, 60, 60
3, 124320, Note_off_c, 0, 53, 60
3, 124560, Note_off_c, 0, 60, 60
3, 124560, Note_on_c, 0, 53, 60
3, 124800, Note_off_c, 0, 53, 60
3, 124800, Note_on_c, 0, 44, 54
3, 125040, Note_on_c, 0, 54, 54
3, 125040, Note_off_c, 0, 44, 54
3, 125280, Note_on_c, 0, 63, 54
3, 125280, Note_off_c, 0, 54, 54
3, 125520, Note_off_c, 0, 63, 54
3, 125520, Note_on_c, 0, 54, 54
3, 125760, Note_off_c, 0, 54, 54
3, 125760, Note_on_c, 0, 44, 54
3, 126000, Note_on_c, 0, 54, 54
3, 126000, Note_off_c, 0, 44, 54
3, 126240, Note_on_c, 0, 63, 54
3, 126240, Note_off_c, 0, 54, 54
3, 126480, Note_off_c, 0, 63, 54
3, 126480, Note_on_c, 0, 54, 54
3, 126720, Note_off_c, 0, 54, 54
3, 192000, Note_on_c, 0, 57, 60
3, 192000, Note_on_c, 0, 48, 60
3, 197760, Note_on_c, 0, 58, 54
3, 197760, Note_off_c, 0, 57, 60
3, 197760, Note_on_c, 0, 54, 54
3, 197760, Note_off_c, 0, 48, 60
3, 197760, Note_on_c, 0, 48, 54
3, 199680, Note_off_c, 0, 58, 54
3, 199680, Note_on_c, 0, 57, 60
3, 199680, Note_off_c, 0, 54, 54
3, 199680, Note_off_c, 0, 48, 54
3, 199680, Note_on_c, 0, 48, 60
3, 205440, Note_off_c, 0, 57, 60
3, 205440, Note_on_c, 0, 54, 54
3, 205440, Note_on_c, 0, 49, 54
3, 205440, Note_off_c, 0, 48, 60
3, 205440, Note_on_c, 0, 46, 54
3, 207360, Note_on_c, 0, 60, 60
3, 207360, Note_off_c, 0, 54, 54
3, 207360, Note_off_c, 0, 49, 54
3, 207360, Note_on_c, 0, 48, 60
3, 207360, Note_off_c, 0, 46, 54
3, 213120, Note_on_c, 0, 61, 54
3, 213120, Note_off_c, 0, 60, 60
3, 213120, Note_on_c, 0, 56, 54
3, 213120, Note_on_c, 0, 54, 54
3, 213120, Note_off_c, 0, 48, 60
3, 215040, Note_off_c, 0, 61, 54
3, 215040, Note_on_c, 0, 60, 60
3, 215040, Note_off_c, 0, 56, 54
3, 215040, Note_off_c, 0, 54, 54
3, 215040, Note_on_c, 0, 48, 60
3, 220800, Note_on_c, 0, 63, 54
3, 220800, Note_off_c, 0, 60, 60
3, 220800, Note_on_c, 0, 54, 54
3, 220800, Note_off_c, 0, 48, 60
3, 220800, Note_on_c, 0, 44, 54
3, 222720, Note_off_c, 0, 63, 54
3, 222720, Note_off_c, 0, 54, 54
3, 222720, Note_off_c, 0, 44, 54
3, 222720, Note_on_c, 0, 57, 60
3, 222720, Note_on_c, 0, 53, 60
3, 222720, Note_on_c, 0, 48, 60
3, 228480, Note_on_c, 0, 58, 54
3, 228480, Note_off_c, 0, 57, 60
3, 228480, Note_on_c, 0, 54, 54
3, 228480, Note_off_c, 0, 53, 60
3, 228480, Note_off_c, 0, 48, 60
3, 228480, Note_on_c, 0, 48, 54
3, 230400, Note_off_c, 0, 58, 54
3, 230400, Note_on_c, 0, 57, 60
3, 230400, Note_off_c, 0, 54, 54
3, 230400, Note_on_c, 0, 53, 60
3, 230400, Note_off_c, 0, 48, 54
3, 230400, Note_on_c, 0, 48, 60
3, 236160, Note_off_c, 0, 57, 60
3, 236160, Note_on_c, 0, 54, 54
3, 236160, Note_off_c, 0, 53, 60
3, 236160, Note_on_c, 0, 49, 54
3, 236160, Note_off_c, 0, 48, 60
3, 236160, Note_on_c, 0, 46, 54
3, 238080, Note_on_c, 0, 60, 60
3, 238080, Note_off_c, 0, 54, 54
3, 238080, Note_on_c, 0, 53, 60
3, 238080, Note_off_c, 0, 49, 54
3, 238080, Note_on_c, 0, 48, 60
3, 238080, Note_off_c, 0, 46, 54
3, 243840, Note_on_c, 0, 61, 54
3, 243840, Note_off_c, 0, 60, 60
3, 243840, Note_on_c, 0, 56, 54
3, 243840, Note_on_c, 0, 54, 54
3, 243840, Note_off_c, 0, 53, 60
3, 243840, Note_off_c, 0, 48, 60
3, 245760, Note_off_c, 0, 61, 54
3, 245760, Note_on_c, 0, 60, 60
3, 245760, Note_off_c, 0, 56, 54
3, 245760, Note_off_c, 0, 54, 54
3, 245760, Note_on_c, 0, 53, 60
3, 245760, Note_on_c, 0, 48, 60
3, 251520, Note_on_c, 0, 63, 54
3, 251520, Note_off_c, 0, 60, 60
3, 251520, Note_on_c, 0, 54, 54
3, 251520, Note_off_c, 0, 53, 60
3, 251520, Note_off_c, 0, 48, 60
3, 251520, Note_on_c, 0, 44, 54
3, 253440, Note_off_c, 0, 63, 54
3, 253440, Note_off_c, 0, 54, 54
3, 253440, Note_off_c, 0, 44, 54
3, 253441, End_track
4, 0, Start_track
4, 0, Title_t, "Deep Pocket"
4, 0, Note_on_c, 0, 36, 60
4, 240, Note_on_c, 0, 38, 60
4, 240, Note_off_c, 0, 36, 60
4, 480, Note_off_c, 0, 38, 60
4, 480, Note_on_c, 0, 36, 60
4, 720, Note_on_c, 0, 38, 60
4, 720, Note_off_c, 0, 36, 60
4, 960, Note_off_c, 0, 38, 60
4, 960, Note_on_c, 0, 36, 60
4, 1200, Note_on_c, 0, 38, 60
4, 1200, Note_off_c, 0, 36, 60
4, 1440, Note_off_c, 0, 38, 60
4, 1440, Note_on_c, 0, 36, 60
4, 1680, Note_on_c, 0, 38, 60
4, 1680, Note_off_c, 0, 36, 60
4, 1920, Note_off_c, 0, 38, 60
4, 1920, Note_on_c, 0, 36, 60
4, 2160, Note_on_c, 0, 38, 60
4, 2160, Note_off_c, 0, 36, 60
4, 2400, Note_off_c, 0, 38, 60
4, 2400, Note_on_c, 0, 36, 60
4, 2640, Note_on_c, 0, 38, 60
4, 2640, Note_off_c, 0, 36, 60
4, 2880, Note_off_c, 0, 38, 60
4, 2880, Note_on_c, 0, 36, 60
4, 3120, Note_on_c, 0, 38, 60
4, 3120, Note_off_c, 0, 36, 60
4, 3360, Note_off_c, 0, 38, 60
4, 3360, Note_on_c, 0, 36, 60
4, 3600, Note_on_c, 0, 38, 60
4, 3600, Note_off_c, 0, 36, 60
4, 3840, Note_off_c, 0, 38, 60
4, 3840, Note_on_c, 0, 36, 60
4, 4080, Note_on_c, 0, 38, 60
4, 4080, Note_off_c, 0, 36, 60
4, 4320, Note_off_c, 0, 38, 60
4, 4320, Note_on_c, 0, 36, 60
4, 4560, Note_on_c, 0, 38, 60
4, 4560, Note_off_c, 0, 36, 60
4, 4800, Note_off_c, 0, 38, 60
4, 4800, Note_on_c, 0, 36, 60
4, 5040, Note_on_c, 0, 38, 60
4, 5040, Note_off_c, 0, 36, 60
4, 5280, Note_off_c, 0, 38, 60
4, 5280, Note_on_c, 0, 36, 60
4, 5520, Note_on_c, 0, 38, 60
4, 5520, Note_off_c, 0, 36, 60
4, 5760, Note_off_c, 0, 38, 60
4, 5760, Note_on_c, 0, 36, 54
4, 6000, Note_on_c, 0, 40, 54
4, 6000, Note_off_c, 0, 36, 54
4, 6240, Note_off_c, 0, 40, 54
4, 6240, Note_on_c, 0, 39, 54
4, 6480, Note_off_c, 0, 39, 54
4, 6480, Note_on_c, 0, 36, 54
4, 6720, Note_on_c, 0, 40, 54
4, 6720, Note_off_c, 0, 36, 54
4, 6960, Note_off_c, 0, 40, 54
4, 6960, Note_on_c, 0, 39, 54
4, 7200, Note_off_c, 0, 39, 54
4, 7200, Note_on_c, 0, 36, 54
4, 7440, Note_on_c, 0, 40, 54
4, 7440, Note_off_c, 0, 36, 54
4, 7680, Note_off_c, 0, 40, 54
4, 7680, Note_on_c, 0, 36, 60
4, 7920, Note_on_c, 0, 38, 60
4, 7920, Note_off_c, 0, 36, 60
4, 8160, Note_off_c, 0, 38, 60
4, 8160, Note_on_c, 0, 36, 60
4, 8400, Note_on_c, 0, 38, 60
4, 8400, Note_off_c, 0, 36, 60
4, 8640, Note_off_c, 0, 38, 60
4, 8640, Note_on_c, 0, 36, 60
4, 8880, Note_on_c, 0, 38, 60
4, 8880, Note_off_c, 0, 36, 60
4, 9120, Note_off_c, 0, 38, 60
4, 9120, Note_on_c, 0, 36, 60
4, 9360, Note_on_c, 0, 38, 60
4, 9360, Note_off_c, 0, 36, 60
4, 9600, Note_off_c, 0, 38, 60
4, 9600, Note_on_c, 0, 36, 60
4, 9840, Note_on_c, 0, 38, 60
4, 9840, Note_off_c, 0, 36, 60
4, 10080, Note_off_c, 0, 38, 60
4, 10080, Note_on_c, 0, 36, 60
4, 10320, Note_on_c, 0, 38, 60
4, 10320, Note_off_c, 0, 36, 60
4, 10560, Note_off_c, 0, 38, 60
4, 10560, Note_on_c, 0, 36, 60
4, 10800, Note_on_c, 0, 38, 60
4, 10800, Note_off_c, 0, 36, 60
4, 11040, Note_off_c, 0, 38, 60
4, 11040, Note_on_c, 0, 36, 60
4, 11280, Note_on_c, 0, 38, 60
4, 11280, Note_off_c, 0, 36, 60
4, 11520, Note_off_c, 0, 38, 60
4, 11520, Note_on_c, 0, 36, 60
4, 11760, Note_on_c, 0, 38, 60
4, 11760, Note_off_c, 0, 36, 60
4, 12000, Note_off_c, 0, 38, 60
4, 12000, Note_on_c, 0, 36, 60
4, 12240, Note_on_c, 0, 38, 60
4, 12240, Note_off_c, 0, 36, 60
4, 12480, Note_off_c, 0, 38, 60
4, 12480, Note_on_c, 0, 36, 60
4, 12720, Note_on_c, 0, 38, 60
4, 12720, Note_off_c, 0, 36, 60
4, 12960, Note_off_c, 0, 38, 60
4, 12960, Note_on_c, 0, 36, 60
4, 13200, Note_on_c, 0, 38, 60
4, 13200, Note_off_c, 0, 36, 60
4, 13440, Note_on_c, 0, 41, 54
4, 13440, Note_off_c, 0, 38, 60
4, 13680, Note_off_c, 0, 41, 54
4, 13680, Note_on_c, 0, 37, 54
4, 13920, Note_on_c, 0, 39, 54
4, 13920, Note_off_c, 0, 37, 54
4, 14160, Note_on_c, 0, 41, 54
4, 14160, Note_off_c, 0, 39, 54
4, 14400, Note_off_c, 0, 41, 54
4, 14400, Note_on_c, 0, 37, 54
4, 14640, Note_on_c, 0, 39, 54
4, 14640, Note_off_c, 0, 37, 54
4, 14880, Note_on_c, 0, 41, 54
4, 14880, Note_off_c, 0, 39, 54
4, 15120, Note_off_c, 0, 41, 54
4, 15120, Note_on_c, 0, 37, 54
4, 15360, Note_on_c, 0, 42, 60
4, 15360, Note_off_c, 0, 37, 54
4, 15600, Note_on_c, 0, 46, 60
4, 15600, Note_off_c, 0, 42, 60
4, 15840, Note_off_c, 0, 46, 60
4, 15840, Note_on_c, 0, 43, 60
4, 16080, Note_off_c, 0, 43, 60
4, 16080, Note_on_c, 0, 42, 60
4, 16320, Note_on_c, 0, 46, 60
4, 16320, Note_off_c, 0, 42, 60
4, 16560, Note_off_c, 0, 46, 60
4, 16560, Note_on_c, 0, 43, 60
4, 16800, Note_off_c, 0, 43, 60
4, 16800, Note_on_c, 0, 42, 60
4, 17040, Note_on_c, 0, 46, 60
4, 17040, Note_off_c, 0, 42, 60
4, 17280, Note_off_c, 0, 46, 60
4, 17280, Note_on_c, 0, 43, 60
4, 17520, Note_off_c, 0, 43, 60
4, 17520, Note_on_c, 0, 42, 60
4, 17760, Note_on_c, 0, 46, 60
4, 17760, Note_off_c, 0, 42, 60
4, 18000, Note_off_c, 0, 46, 60
4, 18000, Note_on_c, 0, 43, 60
4, 18240, Note_off_c, 0, 43, 60
4, 18240, Note_on_c, 0, 42, 60
4, 18480, Note_on_c, 0, 46, 60
4, 18480, Note_off_c, 0, 42, 60
4, 18720, Note_off_c, 0, 46, 60
4, 18720, Note_on_c, 0, 43, 60
4, 18960, Note_off_c, 0, 43, 60
4, 18960, Note_on_c, 0, 42, 60
4, 19200, Note_on_c, 0, 46, 60
4, 19200, Note_off_c, 0, 42, 60
4, 19440, Note_off_c, 0, 46, 60
4, 19440, Note_on_c, 0, 43, 60
4, 19680, Note_off_c, 0, 43, 60
4, 19680, Note_on_c, 0, 42, 60
4, 19920, Note_on_c, 0, 46, 60
4, 19920, Note_off_c, 0, 42, 60
4, 20160, Note_off_c, 0, 46, 60
4, 20160, Note_on_c, 0, 43, 60
4, 20400, Note_off_c, 0, 43, 60
4, 20400, Note_on_c, 0, 42, 60
4, 20640, Note_on_c, 0, 46, 60
4, 20640, Note_off_c, 0, 42, 60
4, 20880, Note_off_c, 0, 46, 60
4, 20880, Note_on_c, 0, 43, 60
4, 21120, Note_off_c, 0, 43, 60
4, 21120, Note_on_c, 0, 40, 54
4, 21360, Note_on_c, 0, 44, 54
4, 21360, Note_off_c, 0, 40, 54
4, 21600, Note_on_c, 0, 45, 54
4, 21600, Note_off_c, 0, 44, 54
4, 21840, Note_off_c, 0, 45, 54
4, 21840, Note_on_c, 0, 40, 54
4, 22080, Note_on_c, 0, 44, 54
4, 22080, Note_off_c, 0, 40, 54
4, 22320, Note_on_c, 0, 45, 54
4, 22320, Note_off_c, 0, 44, 54
4, 22560, Note_off_c, 0, 45, 54
4, 22560, Note_on_c, 0, 40, 54
4, 22800, Note_on_c, 0, 44, 54
4, 22800, Note_off_c, 0, 40, 54
4, 23040, Note_on_c, 0, 46, 60
4, 23040, Note_off_c, 0, 44, 54
4, 23280, Note_off_c, 0, 46, 60
4, 23280, Note_on_c, 0, 39, 60
4, 23520, Note_on_c, 0, 46, 60
4, 23520, Note_off_c, 0, 39, 60
4, 23760, Note_off_c, 0, 46, 60
4, 23760, Note_on_c, 0, 39, 60
4, 24000, Note_on_c, 0, 46, 60
4, 24000, Note_off_c, 0, 39, 60
4, 24240, Note_off_c, 0, 46, 60
4, 24240, Note_on_c, 0, 39, 60
4, 24480, Note_on_c, 0, 46, 60
4, 24480, Note_off_c, 0, 39, 60
4, 24720, Note_off_c, 0, 46, 60
4, 24720, Note_on_c, 0, 39, 60
4, 24960, Note_on_c, 0, 46, 60
4, 24960, Note_off_c, 0, 39, 60
4, 25200, Note_off_c, 0, 46, 60
4, 25200, Note_on_c, 0, 39, 60
4, 25440, Note_on_c, 0, 46, 60
4, 25440, Note_off_c, 0, 39, 60
4, 25680, Note_off_c, 0, 46, 60
4, 25680, Note_on_c, 0, 39, 60
4, 25920, Note_on_c, 0, 46, 60
4, 25920, Note_off_c, 0, 39, 60
4, 26160, Note_off_c, 0, 46, 60
4, 26160, Note_on_c, 0, 39, 60
4, 26400, Note_on_c, 0, 46, 60
4, 26400, Note_off_c, 0, 39, 60
4, 26640, Note_off_c, 0, 46, 60
4, 26640, Note_on_c, 0, 39, 60
4, 26880, Note_on_c, 0, 46, 60
4, 26880, Note_off_c, 0, 39, 60
4, 27120, Note_off_c, 0, 46, 60
4, 27120, Note_on_c, 0, 39, 60
4, 27360, Note_on_c, 0, 46, 60
4, 27360, Note_off_c, 0, 39, 60
4, 27600, Note_off_c, 0, 46, 60
4, 27600, Note_on_c, 0, 39, 60
4, 27840, Note_on_c, 0, 46, 60
4, 27840, Note_off_c, 0, 39, 60
4, 28080, Note_off_c, 0, 46, 60
4, 28080, Note_on_c, 0, 39, 60
4, 28320, Note_on_c, 0, 46, 60
4, 28320, Note_off_c, 0, 39, 60
4, 28560, Note_off_c, 0, 46, 60
4, 28560, Note_on_c, 0, 39, 60
4, 28800, Note_on_c, 0, 45, 54
4, 28800, Note_off_c, 0, 39, 60
4, 29040, Note_off_c, 0, 45, 54
4, 29040, Note_on_c, 0, 40, 54
4, 29280, Note_on_c, 0, 47, 54
4, 29280, Note_off_c, 0, 40, 54
4, 29520, Note_off_c, 0, 47, 54
4, 29520, Note_on_c, 0, 40, 54
4, 29760, Note_on_c, 0, 45, 54
4, 29760, Note_off_c, 0, 40, 54
4, 30000, Note_off_c, 0, 45, 54
4, 30000, Note_on_c, 0, 40, 54
4, 30240, Note_on_c, 0, 47, 54
4, 30240, Note_off_c, 0, 40, 54
4, 30480, Note_off_c, 0, 47, 54
4, 30480, Note_on_c, 0, 40, 54
4, 30720, Note_on_c, 0, 48, 60
4, 30720, Note_off_c, 0, 40, 54
4, 30960, Note_on_c, 0, 50, 60
4, 30960, Note_off_c, 0, 48, 60
4, 31200, Note_off_c, 0, 50, 60
4, 31200, Note_on_c, 0, 48, 60
4, 31440, Note_on_c, 0, 50, 60
4, 31440, Note_off_c, 0, 48, 60
4, 31680, Note_off_c, 0, 50, 60
4, 31680, Note_on_c, 0, 48, 60
4, 31920, Note_on_c, 0, 50, 60
4, 31920, Note_off_c, 0, 48, 60
4, 32160, Note_off_c, 0, 50, 60
4, 32160, Note_on_c, 0, 48, 60
4, 32400, Note_on_c, 0, 50, 60
4, 32400, Note_off_c, 0, 48, 60
4, 32640, Note_off_c, 0, 50, 60
4, 32640, Note_on_c, 0, 48, 60
4, 32880, Note_on_c, 0, 50, 60
4, 32880, Note_off_c, 0, 48, 60
4, 33120, Note_off_c, 0, 50, 60
4, 33120, Note_on_c, 0, 48, 60
4, 33360, Note_on_c, 0, 50, 60
4, 33360, Note_off_c, 0, 48, 60
4, 33600, Note_off_c, 0, 50, 60
4, 33600, Note_on_c, 0, 48, 60
4, 33840, Note_on_c, 0, 50, 60
4, 33840, Note_off_c, 0, 48, 60
4, 34080, Note_off_c, 0, 50, 60
4, 34080, Note_on_c, 0, 48, 60
4, 34320, Note_on_c, 0, 50, 60
4, 34320, Note_off_c, 0, 48, 60
4, 34560, Note_off_c, 0, 50, 60
4, 34560, Note_on_c, 0, 48, 60
4, 34800, Note_on_c, 0, 50, 60
4, 34800, Note_off_c, 0, 48, 60
4, 35040, Note_off_c, 0, 50, 60
4, 35040, Note_on_c, 0, 48, 60
4, 35280, Note_on_c, 0, 50, 60
4, 35280, Note_off_c, 0, 48, 60
4, 35520, Note_off_c, 0, 50, 60
4, 35520, Note_on_c, 0, 48, 60
4, 35760, Note_on_c, 0, 50, 60
4, 35760, Note_off_c, 0, 48, 60
4, 36000, Note_off_c, 0, 50, 60
4, 36000, Note_on_c, 0, 48, 60
4, 36240, Note_on_c, 0, 50, 60
4, 36240, Note_off_c, 0, 48, 60
4, 36480, Note_off_c, 0, 50, 60
4, 36480, Note_on_c, 0, 48, 54
4, 36720, Note_on_c, 0, 52, 54
4, 36720, Note_off_c, 0, 48, 54
4, 36960, Note_off_c, 0, 52, 54
4, 36960, Note_on_c, 0, 51, 54
4, 37200, Note_off_c, 0, 51, 54
4, 37200, Note_on_c, 0, 48, 54
4, 37440, Note_on_c, 0, 52, 54
4, 37440, Note_off_c, 0, 48, 54
4, 37680, Note_off_c, 0, 52, 54
4, 37680, Note_on_c, 0, 51, 54
4, 37920, Note_off_c, 0, 51, 54
4, 37920, Note_on_c, 0, 48, 54
4, 38160, Note_on_c, 0, 52, 54
4, 38160, Note_off_c, 0, 48, 54
4, 38400, Note_off_c, 0, 52, 54
4, 38400, Note_on_c, 0, 48, 60
4, 38640, Note_on_c, 0, 50, 60
4, 38640, Note_off_c, 0, 48, 60
4, 38880, Note_off_c, 0, 50, 60
4, 38880, Note_on_c, 0, 48, 60
4, 39120, Note_on_c, 0, 50, 60
4, 39120, Note_off_c, 0, 48, 60
4, 39360, Note_off_c, 0, 50, 60
4, 39360, Note_on_c, 0, 48, 60
4, 39600, Note_on_c, 0, 50, 60
4, 39600, Note_off_c, 0, 48, 60
4, 39840, Note_off_c, 0, 50, 60
4, 39840, Note_on_c, 0, 48, 60
4, 40080, Note_on_c, 0, 50, 60
4, 40080, Note_off_c, 0, 48, 60
4, 40320, Note_off_c, 0, 50, 60
4, 40320, Note_on_c, 0, 48, 60
4, 40560, Note_on_c, 0, 50, 60
4, 40560, Note_off_c, 0, 48, 60
4, 40800, Note_off_c, 0, 50, 60
4, 40800, Note_on_c, 0, 48, 60
4, 41040, Note_on_c, 0, 50, 60
4, 41040, Note_off_c, 0, 48, 60
4, 41280, Note_off_c, 0, 50, 60
4, 41280, Note_on_c, 0, 48, 60
4, 41520, Note_on_c, 0, 50, 60
4, 41520, Note_off_c, 0, 48, 60
4, 41760, Note_off_c, 0, 50, 60
4, 41760, Note_on_c, 0, 48, 60
4, 42000, Note_on_c, 0, 50, 60
4, 42000, Note_off_c, 0, 48, 60
4, 42240, Note_off_c, 0, 50, 60
4, 42240, Note_on_c, 0, 48, 60
4, 42480, Note_on_c, 0, 50, 60
4, 42480, Note_off_c, 0, 48, 60
4, 42720, Note_off_c, 0, 50, 60
4, 42720, Note_on_c, 0, 48, 60
4, 42960, Note_on_c, 0, 50, 60
4, 42960, Note_off_c, 0, 48, 60
4, 43200, Note_off_c, 0, 50, 60
4, 43200, Note_on_c, 0, 48, 60
4, 43440, Note_on_c, 0, 50, 60
4, 43440, Note_off_c, 0, 48, 60
4, 43680, Note_off_c, 0, 50, 60
4, 43680, Note_on_c, 0, 48, 60
4, 43920, Note_on_c, 0, 50, 60
4, 43920, Note_off_c, 0, 48, 60
4, 44160, Note_on_c, 0, 53, 54
4, 44160, Note_off_c, 0, 50, 60
4, 44400, Note_off_c, 0, 53, 54
4, 44400, Note_on_c, 0, 49, 54
4, 44640, Note_on_c, 0, 51, 54
4, 44640, Note_off_c, 0, 49, 54
4, 44880, Note_on_c, 0, 53, 54
4, 44880, Note_off_c, 0, 51, 54
4, 45120, Note_off_c, 0, 53, 54
4, 45120, Note_on_c, 0, 49, 54
4, 45360, Note_on_c, 0, 51, 54
4, 45360, Note_off_c, 0, 49, 54
4, 45600, Note_on_c, 0, 53, 54
4, 45600, Note_off_c, 0, 51, 54
4, 45840, Note_off_c, 0, 53, 54
4, 45840, Note_on_c, 0, 49, 54
4, 46080, Note_on_c, 0, 54, 60
4, 46080, Note_off_c, 0, 49, 54
4, 46320, Note_on_c, 0, 58, 60
4, 46320, Note_off_c, 0, 54, 60
4, 46560, Note_off_c, 0, 58, 60
4, 46560, Note_on_c, 0, 55, 60
4, 46800, Note_off_c, 0, 55, 60
4, 46800, Note_on_c, 0, 54, 60
4, 47040, Note_on_c, 0, 58, 60
4, 47040, Note_off_c, 0, 54, 60
4, 47280, Note_off_c, 0, 58, 60
4, 47280, Note_on_c, 0, 55, 60
4, 47520, Note_off_c, 0, 55, 60
4, 47520, Note_on_c, 0, 54, 60
4, 47760, Note_on_c, 0, 58, 60
4, 47760, Note_off_c, 0, 54, 60
4, 48000, Note_off_c, 0, 58, 60
4, 48000, Note_on_c, 0, 55, 60
4, 48240, Note_off_c, 0, 55, 60
4, 48240, Note_on_c, 0, 54, 60
4, 48480, Note_on_c, 0, 58, 60
4, 48480, Note_off_c, 0, 54, 60
4, 48720, Note_off_c, 0, 58, 60
4, 48720, Note_on_c, 0, 55, 60
4, 48960, Note_off_c, 0, 55, 60
4, 48960, Note_on_c, 0, 54, 60
4, 49200, Note_on_c, 0, 58, 60
4, 49200, Note_off_c, 0, 54, 60
4, 49440, Note_off_c, 0, 58, 60
4, 49440, Note_on_c, 0, 55, 60
4, 49680, Note_off_c, 0, 55, 60
4, 49680, Note_on_c, 0, 54, 60
4, 49920, Note_on_c, 0, 58, 60
4, 49920, Note_off_c, 0, 54, 60
4, 50160, Note_off_c, 0, 58, 60
4, 50160, Note_on_c, 0, 55, 60
4, 50400, Note_off_c, 0, 55, 60
4, 50400, Note_on_c, 0, 54, 60
4, 50640, Note_on_c, 0, 58, 60
4, 50640, Note_off_c, 0, 54, 60
4, 50880, Note_off_c, 0, 58, 60
4, 50880, Note_on_c, 0, 55, 60
4, 51120, Note_off_c, 0, 55, 60
4, 51120, Note_on_c, 0, 54, 60
4, 51360, Note_on_c, 0, 58, 60
4, 51360, Note_off_c, 0, 54, 60
4, 51600, Note_off_c, 0, 58, 60
4, 51600, Note_on_c, 0, 55, 60
4, 51840, Note_off_c, 0, 55, 60
4, 51840, Note_on_c, 0, 52, 54
4, 52080, Note_on_c, 0, 56, 54
4, 52080, Note_off_c, 0, 52, 54
4, 52320, Note_on_c, 0, 57, 54
4, 52320, Note_off_c, 0, 56, 54
4, 52560, Note_off_c, 0, 57, 54
4, 52560, Note_on_c, 0, 52, 54
4, 52800, Note_on_c, 0, 56, 54
4, 52800, Note_off_c, 0, 52, 54
4, 53040, Note_on_c, 0, 57, 54
4, 53040, Note_off_c, 0, 56, 54
4, 53280, Note_off_c, 0, 57, 54
4, 53280, Note_on_c, 0, 52, 54
4, 53520, Note_on_c, 0, 56, 54
4, 53520, Note_off_c, 0, 52, 54
4, 53760, Note_on_c, 0, 58, 60
4, 53760, Note_off_c, 0, 56, 54
4, 54000, Note_off_c, 0, 58, 60
4, 54000, Note_on_c, 0, 51, 60
4, 54240, Note_on_c, 0, 58, 60
4, 54240, Note_off_c, 0, 51, 60
4, 54480, Note_off_c, 0, 58, 60
4, 54480, Note_on_c, 0, 51, 60
4, 54720, Note_on_c, 0, 58, 60
4, 54720, Note_off_c, 0, 51, 60
4, 54960, Note_off_c, 0, 58, 60
4, 54960, Note_on_c, 0, 51, 60
4, 55200, Note_on_c, 0, 58, 60
4, 55200, Note_off_c, 0, 51, 60
4, 55440, Note_off_c, 0, 58, 60
4, 55440, Note_on_c, 0, 51, 60
4, 55680, Note_on_c, 0, 58, 60
4, 55680, Note_off_c, 0, 51, 60
4, 55920, Note_off_c, 0, 58, 60
4, 55920, Note_on_c, 0, 51, 60
4, 56160, Note_on_c, 0, 58, 60
4, 56160, Note_off_c, 0, 51, 60
4, 56400, Note_off_c, 0, 58, 60
4, 56400, Note_on_c, 0, 51, 60
4, 56640, Note_on_c, 0, 58, 60
4, 56640, Note_off_c, 0, 51, 60
4, 56880, Note_off_c, 0, 58, 60
4, 56880, Note_on_c, 0, 51, 60
4, 57120, Note_on_c, 0, 58, 60
4, 57120, Note_off_c, 0, 51, 60
4, 57360, Note_off_c, 0, 58, 60
4, 57360, Note_on_c, 0, 51, 60
4, 57600, Note_on_c, 0, 58, 60
4, 57600, Note_off_c, 0, 51, 60
4, 57840, Note_off_c, 0, 58, 60
4, 57840, Note_on_c, 0, 51, 60
4, 58080, Note_on_c, 0, 58, 60
4, 58080, Note_off_c, 0, 51, 60
4, 58320, Note_off_c, 0, 58, 60
4, 58320, Note_on_c, 0, 51, 60
4, 58560, Note_on_c, 0, 58, 60
4, 58560, Note_off_c, 0, 51, 60
4, 58800, Note_off_c, 0, 58, 60
4, 58800, Note_on_c, 0, 51, 60
4, 59040, Note_on_c, 0, 58, 60
4, 59040, Note_off_c, 0, 51, 60
4, 59280, Note_off_c, 0, 58, 60
4, 59280, Note_on_c, 0, 51, 60
4, 59520, Note_on_c, 0, 57, 54
4, 59520, Note_off_c, 0, 51, 60
4, 59760, Note_off_c, 0, 57, 54
4, 59760, Note_on_c, 0, 52, 54
4, 60000, Note_on_c, 0, 59, 54
4, 60000, Note_off_c, 0, 52, 54
4, 60240, Note_off_c, 0, 59, 54
4, 60240, Note_on_c, 0, 52, 54
4, 60480, Note_on_c, 0, 57, 54
4, 60480, Note_off_c, 0, 52, 54
4, 60720, Note_off_c, 0, 57, 54
4, 60720, Note_on_c, 0, 52, 54
4, 60960, Note_on_c, 0, 59, 54
4, 60960, Note_off_c, 0, 52, 54
4, 61200, Note_off_c, 0, 59, 54
4, 61200, Note_on_c, 0, 52, 54
4, 61440, Note_off_c, 0, 52, 54
4, 192000, Note_on_c, 0, 57, 60
4, 192000, Note_on_c, 0, 48, 60
4, 197760, Note_on_c, 0, 58, 54
4, 197760, Note_off_c, 0, 57, 60
4, 197760, Note_on_c, 0, 54, 54
4, 197760, Note_off_c, 0, 48, 60
4, 197760, Note_on_c, 0, 48, 54
4, 199680, Note_off_c, 0, 58, 54
4, 199680, Note_on_c, 0, 57, 60
4, 199680, Note_off_c, 0, 54, 54
4, 199680, Note_off_c, 0, 48, 54
4, 199680, Note_on_c, 0, 48, 60
4, 205440, Note_off_c, 0, 57, 60
4, 205440, Note_on_c, 0, 54, 54
4, 205440, Note_on_c, 0, 49, 54
4, 205440, Note_off_c, 0, 48, 60
4, 205440, Note_on_c, 0, 46, 54
4, 207360, Note_on_c, 0, 60, 60
4, 207360, Note_off_c, 0, 54, 54
4, 207360, Note_off_c, 0, 49, 54
4, 207360, Note_on_c, 0, 48, 60
4, 207360, Note_off_c, 0, 46, 54
4, 213120, Note_on_c, 0, 61, 54
4, 213120, Note_off_c, 0, 60, 60
4, 213120, Note_on_c, 0, 56, 54
4, 213120, Note_on_c, 0, 54, 54
4, 213120, Note_off_c, 0, 48, 60
4, 215040, Note_off_c, 0, 61, 54
4, 215040, Note_on_c, 0, 60, 60
4, 215040, Note_off_c, 0, 56, 54
4, 215040, Note_off_c, 0, 54, 54
4, 215040, Note_on_c, 0, 48, 60
4, 220800, Note_on_c, 0, 63, 54
4, 220800, Note_off_c, 0, 60, 60
4, 220800, Note_on_c, 0, 54, 54
4, 220800, Note_off_c, 0, 48, 60
4, 220800, Note_on_c, 0, 44, 54
4, 222720, Note_off_c, 0, 63, 54
4, 222720, Note_off_c, 0, 54, 54
4, 222720, Note_off_c, 0, 44, 54
4, 222720, Note_on_c, 0, 57, 60
4, 222720, Note_on_c, 0, 53, 60
4, 222720, Note_on_c, 0, 48, 60
4, 228480, Note_on_c, 0, 58, 54
4, 228480, Note_off_c, 0, 57, 60
4, 228480, Note_on_c, 0, 54, 54
4, 228480, Note_off_c, 0, 53, 60
4, 228480, Note_off_c, 0, 48, 60
4, 228480, Note_on_c, 0, 48, 54
4, 230400, Note_off_c, 0, 58, 54
4, 230400, Note_on_c, 0, 57, 60
4, 230400, Note_off_c, 0, 54, 54
4, 230400, Note_on_c, 0, 53, 60
4, 230400, Note_off_c, 0, 48, 54
4, 230400, Note_on_c, 0, 48, 60
4, 236160, Note_off_c, 0, 57, 60
4, 236160, Note_on_c, 0, 54, 54
4, 236160, Note_off_c, 0, 53, 60
4, 236160, Note_on_c, 0, 49, 54
4, 236160, Note_off_c, 0, 48, 60
4, 236160, Note_on_c, 0, 46, 54
4, 238080, Note_on_c, 0, 60, 60
4, 238080, Note_off_c, 0, 54, 54
4, 238080, Note_on_c, 0, 53, 60
4, 238080, Note_off_c, 0, 49, 54
4, 238080, Note_on_c, 0, 48, 60
4, 238080, Note_off_c, 0, 46, 54
4, 243840, Note_on_c, 0, 61, 54
4, 243840, Note_off_c, 0, 60, 60
4, 243840, Note_on_c, 0, 56, 54
4, 243840, Note_on_c, 0, 54, 54
4, 243840, Note_off_c, 0, 53, 60
4, 243840, Note_off_c, 0, 48, 60
4, 245760, Note_off_c, 0, 61, 54
4, 245760, Note_on_c, 0, 60, 60
4, 245760, Note_off_c, 0, 56, 54
4, 245760, Note_off_c, 0, 54, 54
4, 245760, Note_on_c, 0, 53, 60
4, 245760, Note_on_c, 0, 48, 60
4, 251520, Note_on_c, 0, 63, 54
4, 251520, Note_off_c, 0, 60, 60
4, 251520, Note_on_c, 0, 54, 54
4, 251520, Note_off_c, 0, 53, 60
4, 251520, Note_off_c, 0, 48, 60
4, 251520, Note_on_c, 0, 44, 54
4, 253440, Note_off_c, 0, 63, 54
4, 253440, Note_off_c, 0, 54, 54
4, 253440, Note_off_c, 0, 44, 54
4, 253441, End_track
5, 0, Start_track
5, 0, Title_t, "Driven Leader"
5, 65280, Note_on_c, 0, 60, 60
5, 65520, Note_off_c, 0, 60, 60
5, 65760, Note_on_c, 0, 60, 60
5, 66000, Note_off_c, 0, 60, 60
5, 66240, Note_on_c, 0, 60, 60
5, 66480, Note_off_c, 0, 60, 60
5, 66720, Note_on_c, 0, 60, 60
5, 66960, Note_off_c, 0, 60, 60
5, 67200, Note_on_c, 0, 60, 60
5, 67440, Note_off_c, 0, 60, 60
5, 67680, Note_on_c, 0, 60, 60
5, 67920, Note_off_c, 0, 60, 60
5, 68160, Note_on_c, 0, 60, 60
5, 68400, Note_off_c, 0, 60, 60
5, 68640, Note_on_c, 0, 60, 60
5, 68880, Note_off_c, 0, 60, 60
5, 69120, Note_on_c, 0, 60, 60
5, 69360, Note_off_c, 0, 60, 60
5, 69600, Note_on_c, 0, 60, 60
5, 69840, Note_off_c, 0, 60, 60
5, 70080, Note_on_c, 0, 60, 60
5, 70320, Note_off_c, 0, 60, 60
5, 70560, Note_on_c, 0, 60, 60
5, 70800, Note_off_c, 0, 60, 60
5, 71040, Note_on_c, 0, 60, 54
5, 71280, Note_off_c, 0, 60, 54
5, 71760, Note_on_c, 0, 60, 54
5, 72000, Note_off_c, 0, 60, 54
5, 72480, Note_on_c, 0, 60, 54
5, 72720, Note_off_c, 0, 60, 54
5, 72960, Note_on_c, 0, 60, 60
5, 73200, Note_off_c, 0, 60, 60
5, 73440, Note_on_c, 0, 60, 60
5, 73680, Note_off_c, 0, 60, 60
5, 73920, Note_on_c, 0, 60, 60
5, 74160, Note_off_c, 0, 60, 60
5, 74400, Note_on_c, 0, 60, 60
5, 74640, Note_off_c, 0, 60, 60
5, 74880, Note_on_c, 0, 60, 60
5, 75120, Note_off_c, 0, 60, 60
5, 75360, Note_on_c, 0, 60, 60
5, 75600, Note_off_c, 0, 60, 60
5, 75840, Note_on_c, 0, 60, 60
5, 76080, Note_off_c, 0, 60, 60
5, 76320, Note_on_c, 0, 60, 60
5, 76560, Note_off_c, 0, 60, 60
5, 76800, Note_on_c, 0, 60, 60
5, 77040, Note_off_c, 0, 60, 60
5, 77280, Note_on_c, 0, 60, 60
5, 77520, Note_off_c, 0, 60, 60
5, 77760, Note_on_c, 0, 60, 60
5, 78000, Note_off_c, 0, 60, 60
5, 78240, Note_on_c, 0, 60, 60
5, 78480, Note_off_c, 0, 60, 60
5, 78720, Note_on_c, 0, 58, 54
5, 78960, Note_off_c, 0, 58, 54
5, 79440, Note_on_c, 0, 58, 54
5, 79680, Note_off_c, 0, 58, 54
5, 80160, Note_on_c, 0, 58, 54
5, 80400, Note_off_c, 0, 58, 54
5, 80640, Note_on_c, 0, 55, 60
5, 80880, Note_off_c, 0, 55, 60
5, 81360, Note_on_c, 0, 55, 60
5, 81600, Note_off_c, 0, 55, 60
5, 82080, Note_on_c, 0, 55, 60
5, 82320, Note_off_c, 0, 55, 60
5, 82800, Note_on_c, 0, 55, 60
5, 83040, Note_off_c, 0, 55, 60
5, 83520, Note_on_c, 0, 55, 60
5, 83760, Note_off_c, 0, 55, 60
5, 84240, Note_on_c, 0, 55, 60
5, 84480, Note_off_c, 0, 55, 60
5, 84960, Note_on_c, 0, 55, 60
5, 85200, Note_off_c, 0, 55, 60
5, 85680, Note_on_c, 0, 55, 60
5, 85920, Note_off_c, 0, 55, 60
5, 86640, Note_on_c, 0, 68, 54
5, 86880, Note_off_c, 0, 68, 54
5, 87360, Note_on_c, 0, 68, 54
5, 87600, Note_off_c, 0, 68, 54
5, 88080, Note_on_c, 0, 68, 54
5, 88320, Note_on_c, 0, 72, 60
5, 88320, Note_off_c, 0, 68, 54
5, 88560, Note_off_c, 0, 72, 60
5, 88800, Note_on_c, 0, 72, 60
5, 89040, Note_off_c, 0, 72, 60
5, 89280, Note_on_c, 0, 72, 60
5, 89520, Note_off_c, 0, 72, 60
5, 89760, Note_on_c, 0, 72, 60
5, 90000, Note_off_c, 0, 72, 60
5, 90240, Note_on_c, 0, 72, 60
5, 90480, Note_off_c, 0, 72, 60
5, 90720, Note_on_c, 0, 72, 60
5, 90960, Note_off_c, 0, 72, 60
5, 91200, Note_on_c, 0, 72, 60
5, 91440, Note_off_c, 0, 72, 60
5, 91680, Note_on_c, 0, 72, 60
5, 91920, Note_off_c, 0, 72, 60
5, 92160, Note_on_c, 0, 72, 60
5, 92400, Note_off_c, 0, 72, 60
5, 92640, Note_on_c, 0, 72, 60
5, 92880, Note_off_c, 0, 72, 60
5, 93120, Note_on_c, 0, 72, 60
5, 93360, Note_off_c, 0, 72, 60
5, 93600, Note_on_c, 0, 72, 60
5, 93840, Note_off_c, 0, 72, 60
5, 94320, Note_on_c, 0, 66, 54
5, 94560, Note_off_c, 0, 66, 54
5, 94800, Note_on_c, 0, 66, 54
5, 95040, Note_off_c, 0, 66, 54
5, 95280, Note_on_c, 0, 66, 54
5, 95520, Note_off_c, 0, 66, 54
5, 95760, Note_on_c, 0, 66, 54
5, 96000, Note_off_c, 0, 66, 54
5, 96000, Note_on_c, 0, 60, 60
5, 96240, Note_off_c, 0, 60, 60
5, 96480, Note_on_c, 0, 60, 60
5, 96720, Note_off_c, 0, 60, 60
5, 96960, Note_on_c, 0, 60, 60
5, 97200, Note_off_c, 0, 60, 60
5, 97440, Note_on_c, 0, 60, 60
5, 97680, Note_off_c, 0, 60, 60
5, 97920, Note_on_c, 0, 60, 60
5, 98160, Note_off_c, 0, 60, 60
5, 98400, Note_on_c, 0, 60, 60
5, 98640, Note_off_c, 0, 60, 60
5, 98880, Note_on_c, 0, 60, 60
5, 99120, Note_off_c, 0, 60, 60
5, 99360, Note_on_c, 0, 60, 60
5, 99600, Note_off_c, 0, 60, 60
5, 99840, Note_on_c, 0, 60, 60
5, 100080, Note_off_c, 0, 60, 60
5, 100320, Note_on_c, 0, 60, 60
5, 100560, Note_off_c, 0, 60, 60
5, 100800, Note_on_c, 0, 60, 60
5, 101040, Note_off_c, 0, 60, 60
5, 101280, Note_on_c, 0, 60, 60
5, 101520, Note_off_c, 0, 60, 60
5, 101760, Note_on_c, 0, 60, 54
5, 102000, Note_off_c, 0, 60, 54
5, 102480, Note_on_c, 0, 60, 54
5, 102720, Note_off_c, 0, 60, 54
5, 103200, Note_on_c, 0, 60, 54
5, 103440, Note_off_c, 0, 60, 54
5, 103680, Note_on_c, 0, 60, 60
5, 103920, Note_off_c, 0, 60, 60
5, 104160, Note_on_c, 0, 60, 60
5, 104400, Note_off_c, 0, 60, 60
5, 104640, Note_on_c, 0, 60, 60
5, 104880, Note_off_c, 0, 60, 60
5, 105120, Note_on_c, 0, 60, 60
5, 105360, Note_off_c, 0, 60, 60
5, 105600, Note_on_c, 0, 60, 60
5, 105840, Note_off_c, 0, 60, 60
5, 106080, Note_on_c, 0, 60, 60
5, 106320, Note_off_c, 0, 60, 60
5, 106560, Note_on_c, 0, 60, 60
5, 106800, Note_off_c, 0, 60, 60
5, 107040, Note_on_c, 0, 60, 60
5, 107280, Note_off_c, 0, 60, 60
5, 107520, Note_on_c, 0, 60, 60
5, 107760, Note_off_c, 0, 60, 60
5, 108000, Note_on_c, 0, 60, 60
5, 108240, Note_off_c, 0, 60, 60
5, 108480, Note_on_c, 0, 60, 60
5, 108720, Note_off_c, 0, 60, 60
5, 108960, Note_on_c, 0, 60, 60
5, 109200, Note_off_c, 0, 60, 60
5, 109440, Note_on_c, 0, 58, 54
5, 109680, Note_off_c, 0, 58, 54
5, 110160, Note_on_c, 0, 58, 54
5, 110400, Note_off_c, 0, 58, 54
5, 110880, Note_on_c, 0, 58, 54
5, 111120, Note_off_c, 0, 58, 54
5, 111360, Note_on_c, 0, 55, 60
5, 111600, Note_off_c, 0, 55, 60
5, 112080, Note_on_c, 0, 55, 60
5, 112320, Note_off_c, 0, 55, 60
5, 112800, Note_on_c, 0, 55, 60
5, 113040, Note_off_c, 0, 55, 60
5, 113520, Note_on_c, 0, 55, 60
5, 113760, Note_off_c, 0, 55, 60
5, 114240, Note_on_c, 0, 55, 60
5, 114480, Note_off_c, 0, 55, 60
5, 114960, Note_on_c, 0, 55, 60
5, 115200, Note_off_c, 0, 55, 60
5, 115680, Note_on_c, 0, 55, 60
5, 115920, Note_off_c, 0, 55, 60
5, 116400, Note_on_c, 0, 55, 60
5, 116640, Note_off_c, 0, 55, 60
5, 117360, Note_on_c, 0, 68, 54
5, 117600, Note_off_c, 0, 68, 54
5, 118080, Note_on_c, 0, 68, 54
5, 118320, Note_off_c, 0, 68, 54
5, 118800, Note_on_c, 0, 68, 54
5, 119040, Note_on_c, 0, 72, 60
5, 119040, Note_off_c, 0, 68, 54
5, 119280, Note_off_c, 0, 72, 60
5, 119520, Note_on_c, 0, 72, 60
5, 119760, Note_off_c, 0, 72, 60
5, 120000, Note_on_c, 0, 72, 60
5, 120240, Note_off_c, 0, 72, 60
5, 120480, Note_on_c, 0, 72, 60
5, 120720, Note_off_c, 0, 72, 60
5, 120960, Note_on_c, 0, 72, 60
5, 121200, Note_off_c, 0, 72, 60
5, 121440, Note_on_c, 0, 72, 60
5, 121680, Note_off_c, 0, 72, 60
5, 121920, Note_on_c, 0, 72, 60
5, 122160, Note_off_c, 0, 72, 60
5, 122400, Note_on_c, 0, 72, 60
5, 122640, Note_off_c, 0, 72, 60
5, 122880, Note_on_c, 0, 72, 60
5, 123120, Note_off_c, 0, 72, 60
5, 123360, Note_on_c, 0, 72, 60
5, 123600, Note_off_c, 0, 72, 60
5, 123840, Note_on_c, 0, 72, 60
5, 124080, Note_off_c, 0, 72, 60
5, 124320, Note_on_c, 0, 72, 60
5, 124560, Note_off_c, 0, 72, 60
5, 125040, Note_on_c, 0, 66, 54
5, 125280, Note_off_c, 0, 66, 54
5, 125520, Note_on_c, 0, 66, 54
5, 125760, Note_off_c, 0, 66, 54
5, 126000, Note_on_c, 0, 66, 54
5, 126240, Note_off_c, 0, 66, 54
5, 126480, Note_on_c, 0, 66, 54
5, 126720, Note_off_c, 0, 66, 54
5, 192000, Note_on_c, 0, 57, 60
5, 192000, Note_on_c, 0, 53, 60
5, 192000, Note_on_c, 0, 48, 60
5, 197760, Note_on_c, 0, 58, 54
5, 197760, Note_off_c, 0, 57, 60
5, 197760, Note_on_c, 0, 54, 54
5, 197760, Note_off_c, 0, 53, 60
5, 197760, Note_off_c, 0, 48, 60
5, 197760, Note_on_c, 0, 48, 54
5, 199680, Note_off_c, 0, 58, 54
5, 199680, Note_on_c, 0, 57, 60
5, 199680, Note_off_c, 0, 54, 54
5, 199680, Note_on_c, 0, 53, 60
5, 199680, Note_off_c, 0, 48, 54
5, 199680, Note_on_c, 0, 48, 60
5, 205440, Note_off_c, 0, 57, 60
5, 205440, Note_on_c, 0, 54, 54
5, 205440, Note_off_c, 0, 53, 60
5, 205440, Note_on_c, 0, 49, 54
5, 205440, Note_off_c, 0, 48, 60
5, 205440, Note_on_c, 0, 46, 54
5, 207360, Note_on_c, 0, 60, 60
5, 207360, Note_off_c, 0, 54, 54
5, 207360, Note_on_c, 0, 53, 60
5, 207360, Note_off_c, 0, 49, 54
5, 207360, Note_on_c, 0, 48, 60
5, 207360, Note_off_c, 0, 46, 54
5, 213120, Note_on_c, 0, 61, 54
5, 213120, Note_off_c, 0, 60, 60
5, 213120, Note_on_c, 0, 56, 54
5, 213120, Note_on_c, 0, 54, 54
5, 213120, Note_off_c, 0, 53, 60
5, 213120, Note_off_c, 0, 48, 60
5, 215040, Note_off_c, 0, 61, 54
5, 215040, Note_on_c, 0, 60, 60
5, 215040, Note_off_c, 0, 56, 54
5, 215040, Note_off_c, 0, 54, 54
5, 215040, Note_on_c, 0, 53, 60
5, 215040, Note_on_c, 0, 48, 60
5, 220800, Note_on_c, 0, 63, 54
5, 220800, Note_off_c, 0, 60, 60
5, 220800, Note_on_c, 0, 54, 54
5, 220800, Note_off_c, 0, 53, 60
5, 220800, Note_off_c, 0, 48, 60
5, 220800, Note_on_c, 0, 44, 54
5, 222720, Note_off_c, 0, 63, 54
5, 222720, Note_off_c, 0, 54, 54
5, 222720, Note_off_c, 0, 44, 54
5, 222721, End_track
6, 0, Start_track
6, 0, Title_t, "mixkit-robotic-insect-buzz-332"
6, 65520, Note_on_c, 0, 53, 60
6, 65760, Note_off_c, 0, 53, 60
6, 66000, Note_on_c, 0, 53, 60
6, 66240, Note_off_c, 0, 53, 60
6, 66480, Note_on_c, 0, 53, 60
6, 66720, Note_off_c, 0, 53, 60
6, 66960, Note_on_c, 0, 53, 60
6, 67200, Note_off_c, 0, 53, 60
6, 67440, Note_on_c, 0, 53, 60
6, 67680, Note_off_c, 0, 53, 60
6, 67920, Note_on_c, 0, 53, 60
6, 68160, Note_off_c, 0, 53, 60
6, 68400, Note_on_c, 0, 53, 60
6, 68640, Note_off_c, 0, 53, 60
6, 68880, Note_on_c, 0, 53, 60
6, 69120, Note_off_c, 0, 53, 60
6, 69360, Note_on_c, 0, 53, 60
6, 69600, Note_off_c, 0, 53, 60
6, 69840, Note_on_c, 0, 53, 60
6, 70080, Note_off_c, 0, 53, 60
6, 70320, Note_on_c, 0, 53, 60
6, 70560, Note_off_c, 0, 53, 60
6, 70800, Note_on_c, 0, 53, 60
6, 71040, Note_off_c, 0, 53, 60
6, 71280, Note_on_c, 0, 58, 54
6, 71520, Note_off_c, 0, 58, 54
6, 72000, Note_on_c, 0, 58, 54
6, 72240, Note_off_c, 0, 58, 54
6, 72720, Note_on_c, 0, 58, 54
6, 72960, Note_off_c, 0, 58, 54
6, 73200, Note_on_c, 0, 53, 60
6, 73440, Note_off_c, 0, 53, 60
6, 73680, Note_on_c, 0, 53, 60
6, 73920, Note_off_c, 0, 53, 60
6, 74160, Note_on_c, 0, 53, 60
6, 74400, Note_off_c, 0, 53, 60
6, 74640, Note_on_c, 0, 53, 60
6, 74880, Note_off_c, 0, 53, 60
6, 75120, Note_on_c, 0, 53, 60
6, 75360, Note_off_c, 0, 53, 60
6, 75600, Note_on_c, 0, 53, 60
6, 75840, Note_off_c, 0, 53, 60
6, 76080, Note_on_c, 0, 53, 60
6, 76320, Note_off_c, 0, 53, 60
6, 76560, Note_on_c, 0, 53, 60
6, 76800, Note_off_c, 0, 53, 60
6, 77040, Note_on_c, 0, 53, 60
6, 77280, Note_off_c, 0, 53, 60
6, 77520, Note_on_c, 0, 53, 60
6, 77760, Note_off_c, 0, 53, 60
6, 78000, Note_on_c, 0, 53, 60
6, 78240, Note_off_c, 0, 53, 60
6, 78480, Note_on_c, 0, 53, 60
6, 78720, Note_off_c, 0, 53, 60
6, 78960, Note_on_c, 0, 49, 54
6, 79200, Note_off_c, 0, 49, 54
6, 79680, Note_on_c, 0, 49, 54
6, 79920, Note_off_c, 0, 49, 54
6, 80400, Note_on_c, 0, 49, 54
6, 80640, Note_off_c, 0, 49, 54
6, 81120, Note_on_c, 0, 65, 60
6, 81360, Note_off_c, 0, 65, 60
6, 81840, Note_on_c, 0, 65, 60
6, 82080, Note_off_c, 0, 65, 60
6, 82560, Note_on_c, 0, 65, 60
6, 82800, Note_off_c, 0, 65, 60
6, 83280, Note_on_c, 0, 65, 60
6, 83520, Note_off_c, 0, 65, 60
6, 84000, Note_on_c, 0, 65, 60
6, 84240, Note_off_c, 0, 65, 60
6, 84720, Note_on_c, 0, 65, 60
6, 84960, Note_off_c, 0, 65, 60
6, 85440, Note_on_c, 0, 65, 60
6, 85680, Note_off_c, 0, 65, 60
6, 86160, Note_on_c, 0, 65, 60
6, 86400, Note_off_c, 0, 65, 60
6, 86880, Note_on_c, 0, 61, 54
6, 87120, Note_off_c, 0, 61, 54
6, 87600, Note_on_c, 0, 61, 54
6, 87840, Note_off_c, 0, 61, 54
6, 88560, Note_on_c, 0, 53, 60
6, 88800, Note_off_c, 0, 53, 60
6, 89040, Note_on_c, 0, 53, 60
6, 89280, Note_off_c, 0, 53, 60
6, 89520, Note_on_c, 0, 53, 60
6, 89760, Note_off_c, 0, 53, 60
6, 90000, Note_on_c, 0, 53, 60
6, 90240, Note_off_c, 0, 53, 60
6, 90480, Note_on_c, 0, 53, 60
6, 90720, Note_off_c, 0, 53, 60
6, 90960, Note_on_c, 0, 53, 60
6, 91200, Note_off_c, 0, 53, 60
6, 91440, Note_on_c, 0, 53, 60
6, 91680, Note_off_c, 0, 53, 60
6, 91920, Note_on_c, 0, 53, 60
6, 92160, Note_off_c, 0, 53, 60
6, 92400, Note_on_c, 0, 53, 60
6, 92640, Note_off_c, 0, 53, 60
6, 92880, Note_on_c, 0, 53, 60
6, 93120, Note_off_c, 0, 53, 60
6, 93360, Note_on_c, 0, 53, 60
6, 93600, Note_off_c, 0, 53, 60
6, 93840, Note_on_c, 0, 53, 60
6, 94080, Note_off_c, 0, 53, 60
6, 94080, Note_on_c, 0, 44, 54
6, 94320, Note_off_c, 0, 44, 54
6, 95040, Note_on_c, 0, 44, 54
6, 95280, Note_off_c, 0, 44, 54
6, 96240, Note_on_c, 0, 53, 60
6, 96480, Note_off_c, 0, 53, 60
6, 96720, Note_on_c, 0, 53, 60
6, 96960, Note_off_c, 0, 53, 60
6, 97200, Note_on_c, 0, 53, 60
6, 97440, Note_off_c, 0, 53, 60
6, 97680, Note_on_c, 0, 53, 60
6, 97920, Note_off_c, 0, 53, 60
6, 98160, Note_on_c, 0, 53, 60
6, 98400, Note_off_c, 0, 53, 60
6, 98640, Note_on_c, 0, 53, 60
6, 98880, Note_off_c, 0, 53, 60
6, 99120, Note_on_c, 0, 53, 60
6, 99360, Note_off_c, 0, 53, 60
6, 99600, Note_on_c, 0, 53, 60
6, 99840, Note_off_c, 0, 53, 60
6, 100080, Note_on_c, 0, 53, 60
6, 100320, Note_off_c, 0, 53, 60
6, 100560, Note_on_c, 0, 53, 60
6, 100800, Note_off_c, 0, 53, 60
6, 101040, Note_on_c, 0, 53, 60
6, 101280, Note_off_c, 0, 53, 60
6, 101520, Note_on_c, 0, 53, 60
6, 101760, Note_off_c, 0, 53, 60
6, 102000, Note_on_c, 0, 58, 54
6, 102240, Note_off_c, 0, 58, 54
6, 102720, Note_on_c, 0, 58, 54
6, 102960, Note_off_c, 0, 58, 54
6, 103440, Note_on_c, 0, 58, 54
6, 103680, Note_off_c, 0, 58, 54
6, 103920, Note_on_c, 0, 53, 60
6, 104160, Note_off_c, 0, 53, 60
6, 104400, Note_on_c, 0, 53, 60
6, 104640, Note_off_c, 0, 53, 60
6, 104880, Note_on_c, 0, 53, 60
6, 105120, Note_off_c, 0, 53, 60
6, 105360, Note_on_c, 0, 53, 60
6, 105600, Note_off_c, 0, 53, 60
6, 105840, Note_on_c, 0, 53, 60
6, 106080, Note_off_c, 0, 53, 60
6, 106320, Note_on_c, 0, 53, 60
6, 106560, Note_off_c, 0, 53, 60
6, 106800, Note_on_c, 0, 53, 60
6, 107040, Note_off_c, 0, 53, 60
6, 107280, Note_on_c, 0, 53, 60
6, 107520, Note_off_c, 0, 53, 60
6, 107760, Note_on_c, 0, 53, 60
6, 108000, Note_off_c, 0, 53, 60
6, 108240, Note_on_c, 0, 53, 60
6, 108480, Note_off_c, 0, 53, 60
6, 108720, Note_on_c, 0, 53, 60
6, 108960, Note_off_c, 0, 53, 60
6, 109200, Note_on_c, 0, 53, 60
6, 109440, Note_off_c, 0, 53, 60
6, 109680, Note_on_c, 0, 49, 54
6, 109920, Note_off_c, 0, 49, 54
6, 110400, Note_on_c, 0, 49, 54
6, 110640, Note_off_c, 0, 49, 54
6, 111120, Note_on_c, 0, 49, 54
6, 111360, Note_off_c, 0, 49, 54
6, 111840, Note_on_c, 0, 65, 60
6, 112080, Note_off_c, 0, 65, 60
6, 112560, Note_on_c, 0, 65, 60
6, 112800, Note_off_c, 0, 65, 60
6, 113280, Note_on_c, 0, 65, 60
6, 113520, Note_off_c, 0, 65, 60
6, 114000, Note_on_c, 0, 65, 60
6, 114240, Note_off_c, 0, 65, 60
6, 114720, Note_on_c, 0, 65, 60
6, 114960, Note_off_c, 0, 65, 60
6, 115440, Note_on_c, 0, 65, 60
6, 115680, Note_off_c, 0, 65, 60
6, 116160, Note_on_c, 0, 65, 60
6, 116400, Note_off_c, 0, 65, 60
6, 116880, Note_on_c, 0, 65, 60
6, 117120, Note_off_c, 0, 65, 60
6, 117600, Note_on_c, 0, 61, 54
6, 117840, Note_off_c, 0, 61, 54
6, 118320, Note_on_c, 0, 61, 54
6, 118560, Note_off_c, 0, 61, 54
6, 119280, Note_on_c, 0, 53, 60
6, 119520, Note_off_c, 0, 53, 60
6, 119760, Note_on_c, 0, 53, 60
6, 120000, Note_off_c, 0, 53, 60
6, 120240, Note_on_c, 0, 53, 60
6, 120480, Note_off_c, 0, 53, 60
6, 120720, Note_on_c, 0, 53, 60
6, 120960, Note_off_c, 0, 53, 60
6, 121200, Note_on_c, 0, 53, 60
6, 121440, Note_off_c, 0, 53, 60
6, 121680, Note_on_c, 0, 53, 60
6, 121920, Note_off_c, 0, 53, 60
6, 122160, Note_on_c, 0, 53, 60
6, 122400, Note_off_c, 0, 53, 60
6, 122640, Note_on_c, 0, 53, 60
6, 122880, Note_off_c, 0, 53, 60
6, 123120, Note_on_c, 0, 53, 60
6, 123360, Note_off_c, 0, 53, 60
6, 123600, Note_on_c, 0, 53, 60
6, 123840, Note_off_c, 0, 53, 60
6, 124080, Note_on_c, 0, 53, 60
6, 124320, Note_off_c, 0, 53, 60
6, 124560, Note_on_c, 0, 53, 60
6, 124800, Note_off_c, 0, 53, 60
6, 124800, Note_on_c, 0, 44, 54
6, 125040, Note_off_c, 0, 44, 54
6, 125760, Note_on_c, 0, 44, 54
6, 126000, Note_off_c, 0, 44, 54
6, 218880, Note_on_c, 0, 48, 60
6, 224640, Note_off_c, 0, 48, 60
6, 224640, Note_on_c, 0, 48, 54
6, 226560, Note_off_c, 0, 48, 54
6, 226560, Note_on_c, 0, 48, 60
6, 232320, Note_off_c, 0, 48, 60
6, 232320, Note_on_c, 0, 46, 54
6, 234240, Note_on_c, 0, 48, 60
6, 234240, Note_off_c, 0, 46, 54
6, 240000, Note_on_c, 0, 61, 54
6, 240000, Note_off_c, 0, 48, 60
6, 241920, Note_off_c, 0, 61, 54
6, 241920, Note_on_c, 0, 48, 60
6, 247680, Note_off_c, 0, 48, 60
6, 247680, Note_on_c, 0, 44, 54
6, 249600, Note_off_c, 0, 44, 54
6, 249600, Note_on_c, 0, 48, 60
6, 255360, Note_off_c, 0, 48, 60
6, 255360, Note_on_c, 0, 48, 54
6, 257280, Note_off_c, 0, 48, 54
6, 257280, Note_on_c, 0, 48, 60
6, 263040, Note_off_c, 0, 48, 60
6, 263040, Note_on_c, 0, 46, 54
6, 264960, Note_on_c, 0, 48, 60
6, 264960, Note_off_c, 0, 46, 54
6, 270720, Note_on_c, 0, 61, 54
6, 270720, Note_off_c, 0, 48, 60
6, 272640, Note_off_c, 0, 61, 54
6, 272640, Note_on_c, 0, 48, 60
6, 278400, Note_off_c, 0, 48, 60
6, 278400, Note_on_c, 0, 44, 54
6, 280320, Note_off_c, 0, 44, 54
6, 280321, End_track
0, 0, End_of_file